<?xml version="1.0" standalone="no"?>
<!DOCTYPE svg PUBLIC "-//W3C//DTD SVG 20010904//EN"
 "http://www.w3.org/TR/2001/REC-SVG-20010904/DTD/svg10.dtd">
<svg version="1.0" xmlns="http://www.w3.org/2000/svg"
 width="2000.000000pt" height="2000.000000pt" viewBox="0 0 2000.000000 2000.000000"
 preserveAspectRatio="xMidYMid meet">
<metadata>
Created by potrace 1.14, written by Peter Selinger 2001-2017
</metadata>
<g transform="translate(0.000000,2000.000000) scale(0.100000,-0.100000)"
fill="#000000" stroke="none">
<path d="M32 19888 c-34 -134 -38 -1025 -7 -1368 58 -626 183 -1169 398 -1720
88 -226 237 -537 347 -725 29 -49 61 -106 72 -125 55 -95 223 -379 243 -410
66 -102 285 -482 285 -494 0 -8 -22 -61 -49 -118 -27 -56 -83 -179 -126 -273
-43 -93 -92 -201 -110 -240 -18 -38 -43 -92 -55 -120 -12 -27 -38 -84 -57
-125 -330 -712 -487 -1140 -626 -1705 -32 -129 -75 -322 -83 -370 -2 -11 -6
-33 -9 -50 -24 -127 -46 -252 -55 -320 -7 -44 -14 -87 -15 -96 -3 -14 -7 -47
-20 -149 -2 -19 -6 -51 -9 -70 -9 -61 -24 -183 -31 -260 -2 -19 -6 -64 -9
-100 -4 -36 -9 -87 -11 -115 -13 -117 -15 -144 -20 -220 -11 -172 -16 -232
-20 -280 -2 -27 -7 -111 -11 -185 -3 -74 -8 -160 -9 -190 -3 -49 -11 -244 -20
-480 -14 -380 -20 -1005 -20 -2195 0 -1402 8 -1969 30 -2290 3 -44 8 -116 11
-160 2 -44 7 -91 9 -105 3 -14 7 -50 10 -80 6 -50 13 -100 19 -125 2 -5 6 -28
11 -50 11 -56 52 -133 80 -151 13 -8 47 -17 77 -19 161 -12 437 -77 943 -220
331 -94 1194 -357 1260 -384 11 -5 232 -78 490 -164 446 -147 664 -222 1030
-351 210 -75 292 -105 335 -121 19 -8 139 -52 267 -99 402 -148 909 -349 1159
-461 285 -128 863 -411 1129 -553 50 -26 140 -74 200 -106 90 -49 498 -274
660 -366 80 -45 353 -205 475 -278 273 -164 443 -274 1147 -744 l733 -488 777
518 c428 284 814 540 858 568 110 69 201 126 233 145 15 9 70 42 122 74 744
456 1759 980 2655 1372 94 40 184 80 200 88 56 25 586 245 591 245 3 0 20 7
37 15 45 20 466 183 622 240 72 26 139 51 150 56 11 4 47 18 80 29 33 12 137
49 230 82 531 187 942 317 1610 509 154 44 309 89 345 99 68 20 614 170 640
175 8 2 96 24 195 48 218 55 255 63 335 72 55 7 85 26 106 67 23 44 53 152 60
216 3 29 7 62 9 73 2 11 7 50 10 87 3 37 8 87 10 112 5 47 14 205 20 350 27
596 27 3557 0 4215 -2 50 -6 176 -10 280 -3 105 -8 208 -10 230 -2 22 -6 108
-10 190 -3 83 -8 164 -10 180 -3 17 -7 75 -10 129 -3 55 -7 123 -10 150 -2 28
-7 84 -10 124 -5 75 -11 132 -21 225 -3 28 -7 72 -9 96 -2 24 -6 64 -9 88 -3
23 -8 64 -11 91 -3 26 -8 62 -11 80 -7 58 -16 126 -18 147 -3 29 -18 127 -22
150 -3 11 -7 36 -10 55 -15 102 -38 228 -60 340 -9 41 -18 89 -20 105 -10 56
-103 433 -134 542 -137 478 -276 836 -635 1633 -125 278 -238 528 -250 556
l-23 51 57 114 c609 1210 741 1473 761 1519 13 30 38 87 56 127 61 132 150
369 200 528 57 184 124 509 149 724 4 30 8 61 10 70 1 9 6 52 10 96 3 44 8 96
10 115 10 107 15 175 20 265 4 55 8 123 10 150 2 28 7 102 10 165 4 63 8 142
10 175 19 304 27 896 12 911 -4 4 -98 -23 -210 -59 -220 -73 -1274 -444 -1347
-475 -14 -6 -90 -34 -170 -62 -80 -29 -181 -65 -225 -82 -44 -17 -127 -47
-185 -68 -201 -72 -635 -230 -655 -239 -18 -8 -815 -299 -1140 -416 -66 -24
-163 -59 -215 -78 -52 -19 -146 -54 -209 -76 l-114 -41 -41 23 c-23 13 -77 44
-121 67 -44 24 -145 79 -225 123 -80 44 -179 98 -220 120 -41 22 -92 51 -112
64 -21 13 -40 23 -42 23 -3 0 -61 31 -129 68 -68 38 -186 100 -263 139 -124
63 -189 94 -396 187 -296 133 -851 324 -1233 426 -44 12 -87 23 -95 25 -126
34 -585 135 -725 160 -16 2 -55 9 -85 15 -78 14 -121 21 -150 25 -109 16 -179
26 -200 30 -33 6 -241 32 -305 39 -27 3 -79 8 -115 11 -36 4 -76 8 -90 10 -36
5 -210 18 -440 31 -268 17 -1093 10 -1370 -11 -36 -3 -94 -8 -130 -10 -111 -9
-252 -22 -320 -30 -19 -2 -60 -7 -90 -10 -30 -3 -73 -8 -95 -11 -22 -3 -51 -7
-65 -9 -43 -6 -114 -16 -145 -22 -16 -2 -43 -6 -60 -9 -38 -4 -104 -15 -130
-21 -11 -2 -67 -12 -125 -23 -58 -11 -114 -22 -125 -25 -11 -2 -60 -13 -110
-24 -124 -27 -349 -84 -475 -121 -58 -17 -112 -33 -120 -35 -8 -2 -73 -23
-145 -46 -71 -23 -134 -43 -140 -45 -43 -9 -505 -189 -640 -248 -16 -8 -84
-37 -150 -66 -129 -56 -297 -138 -1079 -524 -274 -136 -514 -254 -533 -263
-30 -14 -40 -14 -72 -4 -43 16 -479 172 -571 206 -113 41 -539 195 -680 245
-324 115 -877 316 -1130 410 -151 56 -322 119 -380 140 -58 21 -231 84 -385
140 -579 211 -1201 430 -1220 430 -2 0 -7 -19 -13 -42z m10473 -1462 c22 -2
85 -7 140 -11 55 -3 116 -8 135 -10 19 -2 62 -6 95 -10 33 -3 74 -8 90 -10 17
-2 62 -7 100 -11 39 -3 72 -7 75 -9 3 -2 30 -6 60 -10 30 -4 64 -8 75 -10 11
-2 43 -6 70 -9 28 -4 57 -9 65 -11 8 -2 31 -7 50 -10 41 -7 196 -35 225 -41
11 -3 40 -9 65 -14 25 -5 54 -11 65 -14 11 -2 54 -12 95 -21 351 -79 663 -171
970 -286 171 -63 440 -171 535 -214 512 -230 777 -367 1091 -563 69 -42 137
-84 152 -93 15 -9 161 -100 324 -202 l298 -186 232 81 c128 44 278 95 333 114
55 18 125 42 155 53 1005 353 1642 558 2023 652 126 31 181 36 193 17 30 -48
-32 -295 -134 -533 -87 -203 -191 -362 -425 -650 -29 -35 -56 -68 -134 -160
-79 -93 -190 -217 -310 -345 -28 -30 -61 -66 -73 -80 -148 -172 -1177 -1201
-1544 -1545 -17 -16 -88 -84 -157 -150 -114 -109 -341 -323 -429 -405 -19 -18
-92 -86 -161 -151 -69 -66 -135 -127 -146 -137 -18 -15 -96 -87 -332 -307 -42
-38 -103 -95 -136 -125 -33 -30 -89 -82 -125 -116 -36 -33 -92 -85 -125 -115
-33 -30 -69 -63 -80 -74 -12 -11 -48 -45 -80 -75 -397 -363 -908 -873 -1138
-1135 -168 -192 -297 -351 -437 -540 -57 -77 -115 -156 -129 -175 -136 -183
-586 -885 -741 -1155 -10 -16 -77 -131 -150 -255 -73 -124 -187 -317 -253
-430 -293 -500 -738 -1242 -803 -1340 -71 -108 -112 -125 -191 -80 -129 74
-329 369 -773 1140 -335 581 -462 797 -613 1044 -190 310 -413 640 -626 926
-82 111 -349 450 -362 460 -3 3 -40 46 -81 95 -462 557 -1257 1367 -2508 2555
-168 160 -215 204 -349 330 -80 74 -161 151 -182 171 -34 32 -191 179 -373
350 -39 37 -105 98 -146 137 -85 79 -110 102 -280 262 -304 284 -626 606 -845
844 -55 60 -105 114 -112 121 -12 12 -105 119 -213 245 -26 30 -93 114 -149
185 -56 72 -109 139 -117 150 -36 46 -182 274 -211 330 -97 185 -220 549 -239
706 -8 62 0 66 103 45 74 -15 315 -79 358 -95 11 -5 43 -15 70 -24 218 -68
540 -177 740 -250 163 -60 279 -102 425 -154 259 -92 400 -142 500 -178 52
-18 221 -78 375 -133 l280 -100 30 17 c17 10 154 91 305 181 151 90 284 169
295 175 18 9 57 32 168 99 18 10 66 37 107 59 41 22 80 43 85 47 32 24 400
211 605 308 579 275 1293 522 1902 658 10 2 26 6 36 8 47 11 110 25 132 29 14
3 75 14 135 26 61 11 128 23 150 26 22 4 47 8 55 10 13 4 240 37 335 50 86 11
180 21 295 30 41 4 93 8 115 10 22 2 101 7 175 11 74 3 136 8 138 9 5 4 742
-4 787 -9z m-7901 -4630 c44 -30 94 -65 110 -78 55 -43 261 -212 266 -218 3
-3 36 -32 75 -65 38 -33 94 -83 125 -111 30 -28 89 -81 130 -119 41 -38 102
-94 135 -124 197 -181 266 -244 289 -264 l26 -23 -21 -39 c-26 -49 -146 -268
-169 -310 -9 -16 -36 -66 -60 -110 -24 -44 -66 -120 -93 -170 -141 -255 -242
-496 -293 -700 -54 -215 -87 -375 -99 -480 -3 -27 -7 -59 -10 -70 -2 -11 -6
-60 -10 -110 -4 -49 -8 -101 -11 -115 -5 -33 -5 -420 1 -485 13 -146 17 -188
30 -270 42 -259 85 -404 175 -590 139 -288 337 -561 590 -816 147 -148 231
-223 355 -316 369 -276 755 -460 1193 -568 56 -14 118 -27 139 -31 21 -3 54
-9 73 -14 19 -5 62 -12 95 -15 33 -4 71 -9 85 -11 57 -9 203 -17 330 -17 124
0 348 11 360 18 3 1 32 6 65 10 32 3 62 8 65 10 3 2 30 6 60 10 30 4 58 9 61
11 3 2 19 5 35 8 168 30 455 133 676 242 144 71 199 89 261 82 91 -10 169 -70
285 -216 114 -143 318 -460 548 -850 27 -46 57 -95 66 -110 10 -15 21 -34 25
-42 4 -8 88 -152 186 -320 99 -168 188 -318 197 -335 10 -16 90 -153 179 -304
88 -151 161 -278 161 -282 0 -5 5 -9 10 -9 6 0 10 -4 10 -10 0 -5 42 -80 94
-167 243 -410 286 -485 286 -494 0 -5 5 -9 10 -9 6 0 10 -4 10 -9 0 -4 63
-115 140 -246 77 -130 140 -241 140 -245 0 -4 6 -13 14 -19 12 -10 21 -1 50
49 20 34 36 63 36 66 0 3 9 17 19 32 10 15 94 160 186 322 93 162 191 336 220
386 28 49 55 97 58 105 4 8 17 30 28 49 27 44 255 443 281 490 11 19 27 49 37
65 25 41 579 1012 603 1055 11 19 27 49 37 65 10 17 154 269 320 560 167 292
306 534 311 538 4 5 16 4 26 -2 50 -29 509 -247 584 -277 47 -19 94 -39 105
-44 41 -19 214 -72 325 -100 100 -25 144 -34 210 -45 8 -1 35 -5 60 -9 109
-18 280 -30 420 -30 119 0 302 9 345 18 11 2 52 7 90 12 39 4 72 8 75 9 24 6
71 16 100 20 83 14 322 76 365 95 11 5 52 20 90 34 62 22 104 38 170 65 70 30
291 141 364 184 374 220 696 505 967 857 108 140 258 384 323 525 53 114 120
330 136 441 4 22 8 46 11 55 2 9 7 34 9 55 3 20 7 49 10 63 4 28 12 107 21
216 5 74 6 401 0 470 -9 112 -18 203 -21 225 -2 14 -6 48 -10 75 -3 28 -10 75
-15 105 -5 30 -12 71 -15 90 -16 97 -92 391 -116 445 -4 11 -15 40 -23 65 -42
127 -115 281 -218 459 -43 73 -78 135 -78 136 0 1 -29 51 -65 110 -36 59 -65
108 -65 110 0 1 -36 65 -81 141 l-80 138 43 41 c24 22 84 76 133 120 50 44 92
82 95 85 5 5 143 127 209 185 19 17 41 37 50 46 22 21 274 243 341 300 166
140 343 273 389 291 21 8 29 4 53 -24 15 -18 28 -38 28 -45 0 -6 3 -13 8 -15
14 -6 128 -233 213 -426 192 -432 341 -864 398 -1152 20 -96 21 -104 26 -135
3 -16 10 -55 15 -85 6 -30 12 -75 15 -100 4 -25 8 -58 10 -75 22 -152 41 -346
59 -590 8 -106 16 -240 21 -340 3 -49 7 -128 10 -175 13 -221 33 -822 50
-1480 5 -208 14 -524 20 -730 2 -69 7 -215 10 -325 3 -110 8 -261 10 -335 2
-74 7 -223 10 -330 3 -107 8 -258 10 -335 2 -77 7 -221 10 -320 3 -99 8 -241
10 -315 3 -74 7 -227 10 -340 3 -113 8 -264 10 -336 l4 -130 -62 -21 c-74 -25
-565 -186 -1047 -343 -941 -307 -1230 -407 -1715 -590 -256 -96 -982 -387
-1110 -445 -16 -7 -70 -30 -120 -50 -49 -21 -146 -62 -215 -92 -232 -102 -456
-201 -501 -221 -24 -12 -98 -45 -164 -75 -66 -30 -155 -71 -197 -91 -43 -20
-111 -51 -150 -70 -352 -164 -933 -454 -1213 -606 -173 -93 -274 -149 -330
-180 -61 -35 -222 -128 -267 -156 -26 -16 -80 -49 -120 -73 -40 -24 -151 -96
-246 -160 -335 -224 -391 -261 -459 -297 -18 -10 -33 -21 -33 -26 0 -4 -5 -8
-10 -8 -6 0 -52 -24 -103 -53 -163 -94 -247 -131 -302 -131 -44 -1 -73 10
-215 81 -91 46 -192 98 -225 116 -33 19 -91 51 -130 72 -38 21 -112 63 -164
92 -51 29 -95 53 -97 53 -2 0 -28 16 -58 35 -30 19 -57 35 -60 35 -3 0 -49 26
-103 59 -495 295 -789 465 -1108 636 -208 112 -766 395 -940 477 -55 26 -158
75 -230 108 -147 70 -337 156 -565 255 -85 37 -173 75 -195 85 -96 42 -345
145 -580 239 -71 29 -139 57 -150 61 -38 17 -342 133 -535 205 -601 224 -1149
409 -1975 667 -71 22 -177 55 -235 73 -188 60 -420 132 -685 215 -143 44 -279
88 -303 96 l-42 16 5 161 c3 89 7 239 10 332 3 94 7 235 10 315 3 80 8 226 10
325 3 99 7 248 10 330 2 83 7 233 10 335 3 102 8 253 10 335 3 83 7 231 10
330 3 99 7 245 10 325 5 155 11 382 20 735 11 464 30 1048 40 1250 3 50 7 146
10 215 9 202 23 439 30 505 2 22 7 81 10 130 3 50 7 104 9 120 3 17 7 62 10
100 4 39 8 81 11 95 2 14 7 50 10 80 11 105 16 136 40 280 49 289 157 684 234
855 5 11 28 70 51 130 106 273 258 609 345 760 39 67 75 115 88 115 5 0 46
-24 91 -54z m1955 -2700 c28 -49 51 -91 51 -93 0 -3 18 -35 39 -71 21 -37 54
-94 71 -127 65 -118 127 -201 225 -300 148 -148 333 -263 451 -280 22 -3 44
-8 51 -10 19 -6 194 -18 268 -18 119 0 243 13 323 35 42 11 106 22 141 24 144
8 282 -78 443 -276 48 -59 428 -600 428 -610 0 -6 -414 -188 -496 -219 -28
-10 -69 -22 -90 -26 -21 -5 -46 -10 -54 -12 -146 -33 -519 -39 -680 -10 -175
32 -228 50 -385 129 -233 118 -455 331 -608 585 -103 169 -197 415 -222 578
-3 16 -7 37 -10 45 -13 41 -19 143 -19 315 1 254 7 446 16 437 3 -4 29 -47 57
-96z m10885 -181 c2 -17 10 -73 16 -125 6 -52 14 -106 16 -120 11 -61 15 -250
6 -300 -19 -103 -22 -115 -59 -230 -75 -233 -224 -482 -379 -631 -235 -225
-565 -379 -910 -426 -72 -10 -352 -10 -414 0 -167 26 -281 62 -462 146 -46 21
-134 60 -195 87 -62 27 -113 52 -113 56 0 3 67 102 150 220 82 117 155 221
162 232 181 265 323 398 467 436 86 23 251 13 431 -25 14 -3 39 -8 55 -10 17
-2 55 -8 85 -12 30 -4 114 -8 185 -7 119 0 136 3 200 29 137 55 199 109 491
430 65 72 141 154 168 183 28 29 59 64 70 77 23 29 23 29 30 -10z"/>
<path d="M7645 16480 c-176 -91 -799 -409 -1274 -652 -90 -46 -163 -88 -164
-93 0 -5 85 -72 189 -148 397 -291 469 -348 650 -513 123 -112 256 -236 359
-335 66 -64 149 -144 185 -178 240 -229 1030 -1026 1260 -1270 74 -79 151
-161 170 -181 181 -192 303 -321 330 -350 18 -19 90 -96 160 -170 71 -74 145
-153 165 -175 21 -22 99 -105 174 -183 l136 -144 114 119 c62 65 220 228 350
362 130 133 267 275 305 315 38 39 128 132 200 207 72 74 250 259 396 409 549
568 1179 1188 1540 1516 30 28 75 69 100 91 190 174 348 295 750 571 36 25 69
48 74 53 5 4 -351 188 -791 407 l-799 400 -70 -66 c-39 -37 -138 -131 -220
-208 -82 -78 -165 -156 -184 -174 -19 -18 -73 -69 -120 -114 -126 -119 -390
-369 -430 -406 -30 -28 -248 -236 -488 -467 -65 -62 -154 -145 -253 -235 -67
-60 -109 -97 -164 -143 -33 -27 -62 -52 -65 -55 -15 -15 -93 -71 -150 -106
-105 -66 -176 -84 -233 -58 -43 19 -63 37 -127 119 -86 110 -104 130 -485 510
-379 378 -556 551 -744 725 -63 58 -126 116 -141 130 -15 14 -76 70 -135 125
-59 55 -120 111 -134 125 -56 54 -287 265 -306 280 -19 15 -27 13 -130 -40z"/>
</g>
</svg>
