<?xml version="1.0" encoding="UTF-8" standalone="no"?>
<!-- Created with Inkscape (http://www.inkscape.org/) -->

<svg
   width="90.004051mm"
   height="22.704979mm"
   viewBox="0 0 90.004041 22.70498"
   version="1.1"
   id="svg8500"
   inkscape:version="1.1 (c68e22c387, 2021-05-23)"
   sodipodi:docname="FULL-SVG-principal-slogan-logo.svg"
   inkscape:export-filename="C:\Users\juan1\WebstormProjects\red-board\src\view\assets\final-short-principal-slogan-logo.png"
   inkscape:export-xdpi="96"
   inkscape:export-ydpi="96"
   xmlns:inkscape="http://www.inkscape.org/namespaces/inkscape"
   xmlns:sodipodi="http://sodipodi.sourceforge.net/DTD/sodipodi-0.dtd"
   xmlns="http://www.w3.org/2000/svg"
   xmlns:svg="http://www.w3.org/2000/svg">
  <sodipodi:namedview
     id="namedview8502"
     pagecolor="#ffffff"
     bordercolor="#666666"
     borderopacity="1.0"
     inkscape:pageshadow="2"
     inkscape:pageopacity="0.0"
     inkscape:pagecheckerboard="0"
     inkscape:document-units="mm"
     showgrid="false"
     fit-margin-top="0"
     fit-margin-left="0"
     fit-margin-right="0"
     fit-margin-bottom="0"
     inkscape:zoom="1.4142136"
     inkscape:cx="130.10765"
     inkscape:cy="43.487067"
     inkscape:window-width="1920"
     inkscape:window-height="1013"
     inkscape:window-x="-9"
     inkscape:window-y="-9"
     inkscape:window-maximized="1"
     inkscape:current-layer="g8652" />
  <defs
     id="defs8497" />
  <g
     inkscape:label="Capa 1"
     inkscape:groupmode="layer"
     id="layer1"
     transform="translate(-147.07545,-132.9359)">
    <g
       id="g8652"
       transform="matrix(0.35379943,0,0,0.35379943,153.87504,101.01963)"
       inkscape:export-filename="C:\Users\juan1\WebstormProjects\red-board\src\view\assets\final-short-principal-slogan-logo.png"
       inkscape:export-xdpi="96"
       inkscape:export-ydpi="96">
      <path
         id="path8656"
         style="fill:#c91f1f;stroke-width:0.264583"
         sodipodi:type="inkscape:offset"
         inkscape:radius="0.24739726"
         inkscape:original="M 1.328125 90.472656 C -1.0781478 90.471656 -3.5882971 90.922682 -5.7910156 92.025391 C -7.0699224 92.621089 -8.2947099 93.249881 -9.5683594 93.876953 C -12.683023 92.748279 -15.790315 91.599831 -18.916016 90.501953 C -18.906116 92.241958 -18.945744 93.917591 -18.65625 95.572266 C -18.182194 97.211951 -17.345625 98.745409 -16.400391 100.16016 C -15.918921 100.59501 -15.8698 101.06283 -16.287109 101.56641 C -17.511585 104.0086 -18.759609 106.58574 -18.740234 109.38086 C -18.897493 114.40496 -18.893079 119.43306 -18.970703 124.45898 C -12.535653 126.0198 -6.2151985 128.30055 -0.53125 131.73242 C 0.76390091 132.5166 1.9430767 133.48406 3.2792969 134.20117 C 4.6747887 133.39409 5.8719575 132.27518 7.2890625 131.49023 C 12.7374 128.15839 18.8207 126.02077 24.984375 124.44727 C 24.941425 119.36991 25.076584 114.28648 24.851562 109.21289 C 24.697481 106.9171 23.847139 104.73642 22.974609 102.63086 C 22.704833 101.96369 21.842978 101.08906 22.425781 100.26367 C 23.486973 98.700927 24.460205 97.015593 24.742188 95.115234 C 25.022106 93.598679 25.015203 92.043732 24.925781 90.509766 C 21.835025 91.630787 18.745397 92.754938 15.654297 93.875 C 12.805304 92.49707 10.055263 90.83683 6.8125 90.589844 C 4.9895788 90.426425 3.156188 90.452825 1.328125 90.472656 z M 2.421875 92.714844 C 6.9734272 92.598493 11.408533 94.240926 15.173828 96.716797 C 17.230464 96.011225 19.237487 95.12089 21.367188 94.65625 C 22.178674 94.554354 22.150706 95.604961 21.849609 96.107422 C 20.911944 98.310612 19.242454 100.07883 17.462891 101.63477 C 14.089409 104.75768 10.265914 107.51973 7.7519531 111.44727 C 6.1958989 113.71656 4.9973584 116.22069 3.4023438 118.45898 C 3.0580858 119.17322 2.6571941 118.49768 2.375 118.10938 C 0.03381533 114.47386 -1.7429372 110.38539 -4.9746094 107.40625 C -7.8957498 104.47965 -11.343039 102.09549 -14.023438 98.929688 C -14.814419 97.841067 -15.680374 96.702896 -15.982422 95.371094 C -16.041802 94.854 -15.646357 94.480803 -15.138672 94.685547 C -13.02887 95.211891 -11.024771 96.112448 -8.9238281 96.65625 C -7.7617615 95.994599 -6.6963027 95.150659 -5.4355469 94.660156 C -2.9648286 93.539188 -0.30468267 92.771725 2.421875 92.714844 z M 8.1074219 98.34375 C 6.2985754 99.753217 4.7309847 101.43901 3.0605469 103.00391 C 1.3985376 101.44069 -0.1111266 99.683225 -1.9824219 98.363281 C -2.9154592 98.506958 -3.7976653 98.900016 -4.6328125 99.328125 C -1.8965666 101.60637 0.53908519 104.20812 2.9960938 106.77734 C 5.5027071 104.33383 7.7787087 101.62175 10.568359 99.488281 C 10.977166 99.160861 9.7753427 99.003091 9.4902344 98.765625 C 9.0504127 98.632994 8.5441874 98.26164 8.1074219 98.34375 z M 172.98438 100.62305 C 171.78376 100.80442 171.46823 102.19705 170.88281 103.06641 C 167.56134 109.34338 164.37005 115.6919 161.39062 122.13867 C 161.12622 122.68963 160.71834 123.43431 161.34766 123.90625 C 161.99573 124.52481 163.42043 124.76366 163.82031 123.75781 C 164.9011 122.016 165.64185 119.96559 166.91406 118.29102 C 167.54084 117.82574 168.4288 118.13105 169.16406 118.02344 C 172.63285 118.01544 176.10186 118.08828 179.57031 118.12695 C 180.67028 120.17907 181.52423 122.39998 182.94531 124.25781 C 183.7997 124.68297 185.02563 124.34751 185.41602 123.44336 C 183.92779 119.66927 182.00632 116.07886 180.24414 112.42773 C 178.29907 108.65391 176.47667 104.80475 174.26758 101.17578 C 173.95652 100.81409 173.46505 100.58475 172.98438 100.62305 z M 146 100.67578 C 142.22291 100.7963 138.30334 102.65704 136.51562 106.11133 C 134.54337 109.73063 134.42721 114.55918 136.16406 118.25977 C 137.48634 121.22284 140.40335 123.40564 143.46094 124.0918 C 147.29107 124.95636 151.60351 124.173 154.6543 121.63086 C 157.7454 118.78883 158.72496 114.23067 158.07812 110.19531 C 157.63171 107.26418 156.05601 104.20849 153.40234 102.57812 C 151.22139 101.17172 148.57696 100.57502 146 100.67578 z M 114.08398 101.17773 C 112.73702 101.26353 111.30494 101.07943 110.0332 101.60742 C 109.34145 102.25908 109.6727 103.35708 109.53711 104.20508 C 109.3978 110.44634 109.50778 116.68958 109.51758 122.93164 C 110.08206 123.27324 110.46492 124.11602 111.21289 123.95117 C 115.19287 123.85817 119.23334 123.91472 123.16406 123.66797 C 125.50482 123.43466 128.09109 122.45115 129.21875 120.24023 C 129.99569 118.59913 129.96767 116.64642 129.5 114.92383 C 128.79178 113.69268 127.75484 112.62452 126.51367 111.94336 C 126.0093 111.11434 127.09692 110.53342 127.41992 109.86914 C 128.95095 107.53532 128.19168 104.05636 125.76562 102.63867 C 123.55066 101.22983 120.80686 101.30023 118.31641 101.19336 C 116.90565 101.16866 115.49494 101.16803 114.08398 101.17773 z M 192.37695 101.19336 C 191.5647 101.22816 190.4524 101.12197 190.02539 101.94531 C 190.00039 109.02721 189.97612 116.1095 189.95312 123.19141 C 190.61787 123.90675 191.92931 124.23065 192.68359 123.51367 C 193.07168 121.86645 192.93241 120.13581 193.05859 118.45312 C 193.08809 117.67955 193.11578 116.90634 193.14648 116.13281 C 195.29813 116.07441 197.44981 116.01725 199.60156 115.96289 C 202.07217 118.7033 204.40352 121.58044 206.99805 124.20508 C 208.08771 125.00598 209.7016 123.37973 208.94141 122.27148 C 207.73312 120.02991 205.64401 118.44011 204.16602 116.40039 C 203.83098 115.78644 204.73992 115.43201 205.18945 115.19531 C 206.88736 114.54343 208.30828 113.23759 208.98242 111.53516 C 209.66137 110.10164 209.32142 108.44301 209.26562 106.95508 C 208.99432 104.80437 207.20627 103.18436 205.36328 102.24609 C 203.30245 101.2544 200.98081 101.40129 198.77539 101.27734 C 196.64273 101.23294 194.51013 101.18556 192.37695 101.19336 z M 220.30078 101.21484 C 218.66268 101.30294 216.99181 101.15514 215.37695 101.4707 C 214.57488 102.01765 214.87138 103.15719 214.75 103.98828 C 214.6649 109.68089 214.67024 115.3756 214.74414 121.06836 C 214.80224 121.81395 214.71128 122.61506 214.97852 123.32031 C 215.71466 124.07035 216.84055 123.74447 217.7793 123.85742 C 220.57509 123.87172 223.38601 124.02882 226.17188 123.74609 C 228.93526 123.27518 231.67268 121.86785 233.12891 119.38672 C 234.99802 116.49568 235.21232 112.86994 234.66016 109.55664 C 234.03687 106.27054 231.81749 103.22822 228.63477 102.02734 C 226.0062 100.93567 223.07737 101.24989 220.30078 101.21484 z M 19.925781 103.26172 L 20.019531 103.29492 L 20.085938 103.31641 C 20.879012 103.70641 21.066991 104.72476 21.40625 105.47266 C 22.530516 108.26566 22.574409 111.31013 22.589844 114.27539 C 22.615904 116.96282 22.598606 119.65038 22.603516 122.33789 C 16.887441 124.21049 11.117603 126.15266 5.9882812 129.36328 C 5.1213263 129.83607 4.3292895 130.51313 3.4179688 130.86328 C 2.1724111 130.70561 1.240509 129.68372 0.14453125 129.14062 C -4.2419836 126.68686 -8.8672194 124.77601 -13.640625 123.28516 C -14.608294 122.99477 -15.583716 122.72827 -16.554688 122.44922 C -16.491958 118.1304 -16.712177 113.79579 -16.300781 109.49023 C -16.042142 107.50383 -15.521004 105.50267 -14.517578 103.75781 C -14.224144 103.16032 -13.493504 103.2113 -13.070312 103.63867 C -12.158058 104.30168 -11.386949 105.13398 -10.554688 105.89062 C -11.577222 107.70744 -12.755893 109.70412 -12.365234 111.87695 C -12.229498 112.78182 -11.730345 114.01739 -11.048828 114.86328 C -9.4937306 116.93633 -6.6087806 117.97246 -4.1308594 117.07617 C -3.2992826 116.9604 -2.2951667 116.20758 -1.5585938 116.93555 C -0.16546203 118.57259 0.73892053 120.55915 1.9023438 122.35742 C 2.290852 122.97301 2.6294159 123.54256 3.0292969 124.12305 C 4.6594469 121.68147 6.0664229 119.10069 7.6171875 116.60938 C 8.624672 116.32909 9.5736266 117.08158 10.560547 117.21289 C 13.699361 118.00092 17.156566 116.01821 18.167969 112.9668 C 18.935921 110.91407 18.380383 108.59246 17.103516 106.86914 C 16.707529 106.36605 16.373029 105.86907 17.099609 105.50781 C 18.015859 104.74563 18.77477 103.66869 19.925781 103.26172 z M 147.00195 103.38086 C 150.11284 103.53097 153.1025 105.55087 154.18164 108.51172 C 155.28722 111.49683 155.1475 115.01354 153.57812 117.81055 C 152.27041 120.21697 149.55898 121.56209 146.88086 121.63281 C 143.73928 121.82528 140.54629 120.02396 139.25781 117.12109 C 137.65757 113.68209 137.95721 109.29953 140.30078 106.26562 C 141.8593 104.23582 144.55396 103.49209 147.00195 103.38086 z M 118.47852 103.85938 C 120.43177 103.91348 122.75591 103.80336 124.18359 105.39648 C 125.30396 106.46779 125.15065 108.40209 123.9668 109.36328 C 122.40167 110.82167 120.11015 110.59988 118.13477 110.69531 C 116.46253 110.67261 114.75394 110.76959 113.11523 110.38867 C 112.38956 110.04218 112.68226 109.08668 112.59961 108.43555 C 112.59561 106.94195 112.67166 105.44992 112.70898 103.95703 C 114.63214 103.92343 116.55508 103.87368 118.47852 103.85938 z M 193.13672 103.94727 L 193.65625 103.94727 C 196.3934 103.99617 199.14173 103.83954 201.87109 104.06836 C 204.13224 104.45798 206.29473 106.45298 206.23047 108.86328 C 206.16537 111.40802 203.61693 113.25729 201.21094 113.2832 C 198.84689 113.3433 196.46774 113.41647 194.10938 113.21094 C 193.4712 113.20794 192.96225 112.69722 193.06641 112.04883 C 192.98101 109.34859 193.10242 106.64745 193.13672 103.94727 z M 217.73633 103.94727 L 218.26172 103.94727 C 220.87446 104.00297 223.50309 103.82492 226.10547 104.09375 C 228.71211 104.64258 230.68042 106.96581 231.33008 109.48242 C 232.16496 112.75822 231.7722 116.64792 229.32617 119.16602 C 228.14108 120.40728 226.48354 121.15989 224.75781 121.13672 C 222.69633 121.19352 220.61597 121.37707 218.56055 121.16406 C 217.85247 121.13876 217.61445 120.43167 217.68945 119.83008 C 217.58642 114.53603 217.71223 109.24161 217.73633 103.94727 z M 173.08008 105.97852 C 173.18503 105.92515 173.29923 106.02218 173.54688 106.37695 C 174.78225 108.34925 175.73578 110.49647 176.77734 112.57812 C 177.09907 113.2913 177.49906 113.9805 177.68945 114.74414 C 177.30881 115.56287 176.21153 115.3007 175.47461 115.41211 C 173.34771 115.45941 171.20193 115.5257 169.08594 115.30664 C 168.31446 115.30064 168.61719 114.71249 168.81445 114.25 C 170.03204 111.6301 171.27621 109.01383 172.66797 106.48242 C 172.87943 106.23563 172.97513 106.03188 173.08008 105.97852 z M 15.607422 108.23828 C 15.681642 108.81445 15.755859 109.39062 15.830078 109.9668 C 16.216709 111.39671 15.668873 112.93863 14.568359 113.90039 C 13.290958 115.1026 11.019508 115.3123 9.7246094 114.03516 C 9.2744743 113.07578 10.262301 112.23442 10.701172 111.46875 C 10.955747 111.03502 11.333525 110.75313 11.810547 111.06641 C 12.770392 111.63503 14.235213 111.35458 14.619141 110.22266 C 14.948157 109.56082 15.278247 108.90004 15.607422 108.23828 z M -9.8125 108.75 C -9.5434529 109.07128 -9.2749064 109.39161 -9.0058594 109.71289 C -8.3810426 110.47169 -7.6529669 111.5903 -6.5019531 111.30273 C -5.8868259 111.09592 -5.1047412 110.92694 -4.6425781 111.53125 C -4.0702547 112.15663 -3.6331129 112.89284 -3.1230469 113.56836 C -3.9323741 114.30014 -4.8920854 115.10599 -6.0683594 114.92773 C -8.3164618 114.70686 -10.215929 112.52404 -9.9414062 110.24219 C -9.8626842 109.84344 -10.103363 108.56499 -9.8125 108.75 z M 119.50391 113.37695 C 121.41369 113.45675 123.61758 113.22273 125.18555 114.53906 C 126.49519 115.58371 127.11223 117.60347 126.08789 119.05078 C 125.04255 120.67369 122.99987 121.11059 121.19727 121.17383 C 118.63358 121.30622 116.03922 121.43139 113.48828 121.08398 C 112.88135 121.05568 112.5553 120.51325 112.62695 119.94922 C 112.54925 117.79392 112.66953 115.63747 112.70703 113.48242 C 114.9726 113.44432 117.23804 113.39332 119.50391 113.37695 z M 219.49805 152.50195 L 219.49023 152.50391 L 219.49805 152.50195 z "
         d="m 4.0761719,90.214844 c -0.9188559,-0.0114 -1.8362622,-1.47e-4 -2.75,0.0098 -2.436672,-7.71e-4 -4.9832619,0.456076 -7.2285157,1.580079 -1.2499148,0.582429 -2.446497,1.195382 -3.6816406,1.804687 -3.0804756,-1.116748 -6.1550116,-2.254706 -9.2499996,-3.341797 a 0.247422,0.247422 0 0 0 -0.330078,0.236328 c 0.0099,1.735346 -0.03137,3.424949 0.263671,5.111328 a 0.247422,0.247422 0 0 0 0.0059,0.02539 c 0.484194,1.674751 1.335411,3.228901 2.289062,4.656255 a 0.247422,0.247422 0 0 0 0.03906,0.0469 c 0.211091,0.19065 0.299022,0.3601 0.3125,0.51563 0.01348,0.15552 -0.04301,0.32969 -0.22461,0.54882 a 0.247422,0.247422 0 0 0 -0.0293,0.0469 c -1.225544,2.44432 -2.500362,5.05792 -2.480469,7.92773 -0.157114,5.02615 -0.152937,10.05229 -0.230469,15.07227 a 0.247422,0.247422 0 0 0 0.189453,0.24414 c 6.416904,1.55642 12.7135229,3.82964 18.36914075,7.24414 1.27494401,0.77194 2.45778945,1.74429 3.82226565,2.47656 a 0.247422,0.247422 0 0 0 0.2402344,-0.004 c 1.4281922,-0.826 2.6242634,-1.94371 4.0058593,-2.70899 a 0.247422,0.247422 0 0 0 0.00977,-0.006 c 5.4185922,-3.31365 11.4775082,-5.4438 17.6269532,-7.01367 a 0.247422,0.247422 0 0 0 0.1875,-0.24219 c -0.0429,-5.07157 0.09273,-10.15886 -0.132813,-15.24414 a 0.247422,0.247422 0 0 0 -0.002,-0.004 c -0.157411,-2.34541 -1.020873,-4.54986 -1.894531,-6.65821 v -0.002 c -0.155256,-0.3831 -0.435312,-0.76032 -0.595703,-1.12891 -0.160608,-0.36908 -0.214978,-0.66983 0.01953,-1.00195 a 0.247422,0.247422 0 0 0 0.0039,-0.004 c 1.06814,-1.57297 2.064473,-3.288892 2.355469,-5.249996 0.284084,-1.544481 0.275342,-3.115883 0.185547,-4.65625 a 0.247422,0.247422 0 0 0 -0.330078,-0.21875 c -3.058388,1.109281 -6.115485,2.22179 -9.173828,3.330078 -2.802413,-1.362523 -5.555135,-3.013363 -8.8339846,-3.263672 h -0.00195 C 5.9126936,90.261402 4.9943784,90.226236 4.0761719,90.214844 Z m -1.6484375,2.748047 c 4.4879905,-0.114727 8.8766296,1.506469 12.6093746,3.960937 a 0.247422,0.247422 0 0 0 0.216797,0.02734 c 2.06455,-0.708287 4.057819,-1.590219 6.148438,-2.048828 0.146449,-0.01734 0.213359,0.01133 0.263672,0.05469 0.05103,0.04397 0.0938,0.124204 0.115234,0.242188 0.04286,0.235967 -0.03133,0.592336 -0.144531,0.78125 a 0.247422,0.247422 0 0 0 -0.01563,0.0293 c -0.914907,2.149715 -2.55295,3.894179 -4.320313,5.439454 a 0.247422,0.247422 0 0 0 -0.0059,0.004 c -3.358461,3.10901 -7.204982,5.88222 -9.7519532,9.86133 -1.5678388,2.28825 -2.7652496,4.78763 -4.3417969,7 a 0.247422,0.247422 0 0 0 -0.021484,0.0371 c -0.071287,0.1479 -0.1266937,0.17508 -0.1230469,0.17383 0.00365,-0.001 0.00688,0.009 -0.046875,-0.0293 -0.1055493,-0.0758 -0.2809388,-0.31932 -0.4277344,-0.52148 -2.3243835,-3.60943 -4.1047017,-7.71793 -7.3808593,-10.74219 l -0.00195,-0.002 c -2.9420007,-2.94703 -6.3814048,-5.32892 -9.0332028,-8.460939 -0.785881,-1.081264 -1.611253,-2.185497 -1.900391,-3.433593 -0.01826,-0.184264 0.03838,-0.319959 0.121094,-0.390626 0.08434,-0.07206 0.197989,-0.105787 0.382812,-0.03125 a 0.247422,0.247422 0 0 0 0.03125,0.01172 c 2.081199,0.519208 4.084752,1.419862 6.2128909,1.970703 a 0.247422,0.247422 0 0 0 0.1855469,-0.02539 c 1.1841688,-0.674236 2.2397933,-1.507657 3.4550781,-1.980469 a 0.247422,0.247422 0 0 0 0.011719,-0.0059 C -2.88542,93.773849 -0.25578395,93.018874 2.4277344,92.962891 Z M 8.0625,98.101562 a 0.247422,0.247422 0 0 0 -0.1074219,0.04688 C 6.1890887,99.52451 4.6611628,101.14668 3.0625,102.6582 1.4784592,101.14687 -8.2155443e-4,99.457336 -1.8398438,98.160156 a 0.247422,0.247422 0 0 0 -0.1796874,-0.04102 c -0.9769331,0.150436 -1.88318,0.55595 -2.7265626,0.988281 a 0.247422,0.247422 0 0 0 -0.044922,0.410156 c 2.7205489,2.265172 5.14919738,4.861152 7.6074218,7.431642 a 0.247422,0.247422 0 0 0 0.3515626,0.006 C 5.6865013,104.49995 7.957885,101.797 10.71875,99.685547 a 0.247422,0.247422 0 0 0 0.0039,-0.0039 c 0.07797,-0.06244 0.152342,-0.145885 0.171875,-0.269532 0.01953,-0.123646 -0.03828,-0.242215 -0.09961,-0.308593 C 10.67226,98.97076 10.531913,98.922366 10.378906,98.863281 10.2259,98.804196 10.061177,98.751896 9.921875,98.701172 9.7825732,98.650448 9.6643903,98.589459 9.6484375,98.576172 A 0.247422,0.247422 0 0 0 9.5625,98.529297 C 9.378576,98.473833 9.1433156,98.351381 8.8925781,98.246094 8.6418407,98.140806 8.3644953,98.044789 8.0625,98.101562 Z m 164.90234,2.275388 a 0.247422,0.247422 0 0 0 -0.0176,0.002 c -0.68962,0.10417 -1.13379,0.56936 -1.45313,1.07617 -0.31934,0.5068 -0.54638,1.07166 -0.81641,1.47265 a 0.247422,0.247422 0 0 0 -0.0137,0.0234 c -3.32308,6.28002 -6.51634,12.63229 -9.49804,19.08399 -0.12943,0.26937 -0.30904,0.60509 -0.375,0.97265 -0.0657,0.36627 0.0246,0.79902 0.40234,1.08789 0.37782,0.35371 0.92926,0.58101 1.47852,0.59375 0.55561,0.0129 1.13922,-0.23694 1.3789,-0.83984 1.07944,-1.75115 1.81859,-3.75456 3.03516,-5.37109 0.24397,-0.16982 0.54805,-0.21334 0.91015,-0.20899 0.37352,0.004 0.78821,0.0588 1.20313,-0.002 l -0.0352,0.004 c 3.41421,-0.008 6.83276,0.0625 10.25196,0.10157 1.05854,1.99966 1.91203,4.17874 3.33203,6.03515 a 0.247422,0.247422 0 0 0 0.0879,0.0703 c 0.98536,0.49033 2.35036,0.11925 2.80664,-0.9375 a 0.247422,0.247422 0 0 0 0.004,-0.1875 c -1.49524,-3.79189 -3.42051,-7.3883 -5.17968,-11.03321 a 0.247422,0.247422 0 0 0 -0.002,-0.006 c -1.94251,-3.76886 -3.76826,-7.62386 -5.98632,-11.26757 a 0.247422,0.247422 0 0 0 -0.0234,-0.0332 c -0.36135,-0.42016 -0.91831,-0.68229 -1.49024,-0.63672 z m -26.97461,0.0508 c -3.85217,0.12351 -7.85477,2.01774 -9.69335,5.57032 -2.01104,3.69499 -2.13042,8.58628 -0.35938,12.36328 1.35903,3.04543 4.33458,5.26931 7.46875,5.97265 3.90035,0.88041 8.28658,0.0859 11.40625,-2.51367 a 0.247422,0.247422 0 0 0 0.01,-0.008 c 3.16846,-2.91316 4.15701,-7.55212 3.5,-11.6543 v -0.002 c -0.45565,-2.98873 -2.05547,-6.10494 -4.78516,-7.78516 -2.23016,-1.43813 -4.92387,-2.04549 -7.54492,-1.94336 z m -31.9082,0.50196 a 0.247422,0.247422 0 0 0 -0.0137,0.002 c -1.31345,0.0837 -2.77957,-0.11375 -4.13086,0.44727 a 0.247422,0.247422 0 0 0 -0.0742,0.0488 c -0.4107,0.3869 -0.51148,0.90744 -0.5332,1.39454 -0.0217,0.48709 0.0231,0.9672 -0.0371,1.34375 a 0.247422,0.247422 0 0 0 -0.004,0.0332 c -0.13945,6.24784 -0.0293,12.49301 -0.0195,18.73242 a 0.247422,0.247422 0 0 0 0.11914,0.21094 c 0.22634,0.13697 0.46043,0.42133 0.74219,0.67383 0.28176,0.25249 0.66558,0.48036 1.13476,0.37695 l -0.0469,0.006 c 3.97373,-0.0929 8.01728,-0.0376 11.96094,-0.28516 a 0.247422,0.247422 0 0 0 0.01,0 c 2.39115,-0.23833 5.06627,-1.23969 6.25,-3.56054 a 0.247422,0.247422 0 0 0 0.002,-0.008 c 0.8104,-1.71177 0.77627,-3.72052 0.29687,-5.48632 a 0.247422,0.247422 0 0 0 -0.0234,-0.0586 c -0.71253,-1.23865 -1.75,-2.31246 -2.99609,-3.01953 -0.0779,-0.14245 -0.10111,-0.25356 -0.0781,-0.36914 0.0251,-0.1259 0.0996,-0.26908 0.2129,-0.41992 0.22462,-0.29912 0.58521,-0.60607 0.7832,-1.00586 1.59865,-2.45914 0.80686,-6.0687 -1.7461,-7.56055 -2.29476,-1.45556 -5.08912,-1.37425 -7.56445,-1.48047 a 0.247422,0.247422 0 0 0 -0.006,0 c -1.41357,-0.0248 -2.82611,-0.0253 -4.23828,-0.0156 z m 78.28516,0.0156 c -0.39055,0.0167 -0.88357,-0.002 -1.35547,0.0859 -0.4719,0.088 -0.94915,0.30732 -1.20508,0.80078 a 0.247422,0.247422 0 0 0 -0.0293,0.11328 c -0.025,7.08192 -0.0493,14.16416 -0.0723,21.2461 a 0.247422,0.247422 0 0 0 0.0664,0.16797 c 0.37493,0.40345 0.91254,0.68553 1.47461,0.77539 0.56208,0.0898 1.16491,-0.0208 1.60743,-0.44141 a 0.247422,0.247422 0 0 0 0.0703,-0.12305 c 0.39999,-1.69773 0.25664,-3.44307 0.38086,-5.09961 a 0.247422,0.247422 0 0 0 0.002,-0.008 c 0.0266,-0.69641 0.051,-1.39239 0.0781,-2.08789 2.03567,-0.0552 4.07176,-0.10864 6.10742,-0.16016 2.43687,2.70883 4.75082,5.55488 7.33008,8.16407 a 0.247422,0.247422 0 0 0 0.0293,0.0254 c 1.31236,0.96458 3.20941,-0.9374 2.29297,-2.27344 -1.2396,-2.28306 -3.32057,-3.87355 -4.76367,-5.85742 -0.0499,-0.0954 -0.0488,-0.14256 -0.0273,-0.20117 0.0223,-0.0609 0.0851,-0.14159 0.18554,-0.22266 0.20091,-0.16214 0.52508,-0.30889 0.76563,-0.43555 l -0.0273,0.0117 c 1.7531,-0.67307 3.2234,-2.01963 3.92774,-3.78516 0.72422,-1.5291 0.36324,-3.2381 0.30859,-4.69531 a 0.247422,0.247422 0 0 0 -0.002,-0.0215 c -0.28626,-2.26932 -2.14917,-3.93729 -4.03711,-4.89844 a 0.247422,0.247422 0 0 0 -0.004,-0.002 c -2.13485,-1.02731 -4.49686,-0.8694 -6.68164,-0.99219 a 0.247422,0.247422 0 0 0 -0.008,-0.002 c -2.13243,-0.0444 -4.26685,-0.0918 -6.4043,-0.084 a 0.247422,0.247422 0 0 0 -0.01,0 z m 27.9375,0.0215 a 0.247422,0.247422 0 0 0 -0.0176,0.002 c -1.61428,0.0868 -3.29638,-0.0647 -4.95703,0.25977 a 0.247422,0.247422 0 0 0 -0.0918,0.0371 c -0.47883,0.32653 -0.63163,0.84733 -0.67578,1.33594 -0.0442,0.48861 -0.002,0.98052 -0.0566,1.35156 a 0.247422,0.247422 0 0 0 -0.004,0.0313 c -0.0851,5.69523 -0.0798,11.39314 -0.006,17.08789 a 0.247422,0.247422 0 0 0 0.002,0.0156 c 0.0555,0.71197 -0.0458,1.53962 0.25,2.32031 a 0.247422,0.247422 0 0 0 0.0547,0.0859 c 0.42479,0.4328 0.9684,0.55222 1.48633,0.58008 0.51794,0.0279 1.03123,-0.0224 1.46094,0.0293 a 0.247422,0.247422 0 0 0 0.0273,0.002 c 2.78737,0.0143 5.60827,0.17206 8.41993,-0.11328 a 0.247422,0.247422 0 0 0 0.0156,-0.002 c 2.81354,-0.47945 5.61756,-1.91232 7.12305,-4.46875 l 0.004,-0.006 c 1.91207,-2.96198 2.12276,-6.64984 1.56446,-10 a 0.247422,0.247422 0 0 0 -0.002,-0.006 c -0.63758,-3.36146 -2.90001,-6.47264 -6.17187,-7.71094 -2.70422,-1.12309 -5.67005,-0.79725 -8.42578,-0.83203 z m -200.363284,2.5625 c 6.51e-4,6.5e-4 0.028,0.0111 0.04102,0.0156 0.322669,0.16159 0.535121,0.45221 0.710937,0.82227 0.177189,0.37294 0.308303,0.81026 0.488282,1.20703 l -0.0059,-0.01 c 1.101844,2.7373 1.150589,5.74919 1.166016,8.71289 0.02547,2.62622 0.0098,5.25462 0.01367,7.88477 -5.661383,1.85582 -11.387816,3.79352 -16.4980471,6.99219 -0.8716002,0.47746 -1.6382519,1.11014 -2.4667969,1.44531 -1.1007223,-0.16964 -2.0009564,-1.11687 -3.13671875,-1.67969 l 0.0117188,0.004 c -4.4034217,-2.46322 -9.0446141,-4.37978 -13.832031,-5.875 a 0.247422,0.247422 0 0 0 -0.0039,0 c -0.9118,-0.27363 -1.826251,-0.52702 -2.736329,-0.78711 0.05392,-4.26309 -0.150123,-8.52433 0.251953,-12.74024 0.255893,-1.9653 0.770825,-3.93453 1.751954,-5.64062 a 0.247422,0.247422 0 0 0 0.0078,-0.0137 c 0.109675,-0.22332 0.266505,-0.30056 0.460938,-0.30664 0.194433,-0.006 0.422921,0.0853 0.58789,0.25195 a 0.247422,0.247422 0 0 0 0.03125,0.0254 c 0.834912,0.6068 1.56537,1.37411 2.351563,2.10156 -0.99947,1.77119 -2.141262,3.76193 -1.746094,5.97461 0.144034,0.96019 0.648854,2.21193 1.367187,3.10352 1.6204499,2.15515 4.6045225,3.22813 7.195313,2.29101 l -0.050781,0.0117 c 0.4748557,-0.0661 0.9351419,-0.28757 1.3476562,-0.39062 0.4107929,-0.10263 0.7168615,-0.11107 1.0136719,0.17969 1.3572893,1.59976 2.25797055,3.5687 3.4316406,5.38281 0.3857591,0.61132 0.7256197,1.18321 1.1308594,1.77148 a 0.247422,0.247422 0 0 0 0.4082031,-0.004 c 1.6158269,-2.42013 3.0104307,-4.96426 4.53125,-7.41602 0.4025891,-0.0868 0.8081339,-0.007 1.25,0.14648 0.4634482,0.16146 0.9509672,0.38639 1.484375,0.46289 0.0033,8.2e-4 0.0065,0.001 0.0098,0.002 3.27281,0.81581 6.839321,-1.23248 7.892578,-4.41016 0.798891,-2.1448 0.21853,-4.54324 -1.09961,-6.32226 a 0.247422,0.247422 0 0 0 -0.0039,-0.006 c -0.194445,-0.24704 -0.349578,-0.48541 -0.375,-0.625 -0.01271,-0.0698 -0.0067,-0.10791 0.02539,-0.16016 0.03208,-0.0523 0.105145,-0.12625 0.259765,-0.20312 a 0.247422,0.247422 0 0 0 0.04883,-0.0312 c 0.931318,-0.77472 1.666688,-1.77496 2.683594,-2.16797 z m 127.060544,0.10156 c 3.00756,0.14991 5.90744,2.11185 6.94727,4.96484 a 0.247422,0.247422 0 0 0 0,0.002 c 1.08124,2.9194 0.9432,6.36649 -0.58594,9.09179 a 0.247422,0.247422 0 0 0 -0.002,0.004 c -1.25768,2.31435 -3.88656,3.62275 -6.48633,3.69141 a 0.247422,0.247422 0 0 0 -0.01,0.002 c -3.03732,0.18608 -6.13846,-1.5662 -7.38085,-4.36524 a 0.247422,0.247422 0 0 0 -0.002,-0.004 c -1.56134,-3.3554 -1.26567,-7.6508 1.01367,-10.60156 1.49,-1.94056 4.10281,-2.67398 6.50586,-2.78516 z m -28.53125,0.47656 h 0.01 c 1.96561,0.054 4.18685,-0.032 5.51953,1.45508 a 0.247422,0.247422 0 0 0 0.0117,0.0137 c 1.00471,0.96072 0.8647,2.7303 -0.20117,3.59571 a 0.247422,0.247422 0 0 0 -0.0117,0.01 c -1.46411,1.36426 -3.66122,1.1706 -5.66016,1.26563 -1.67054,-0.0227 -3.34625,0.0669 -4.92773,-0.29297 -0.25642,-0.12988 -0.32322,-0.32758 -0.34766,-0.64649 -0.025,-0.32612 0.0302,-0.72676 -0.0176,-1.10351 l 0.002,0.0312 c -0.004,-1.40566 0.0645,-2.81771 0.10351,-4.23438 1.84159,-0.0334 3.68172,-0.08 5.51953,-0.0937 z m 79.29688,0.0801 c 1.36245,-0.004 2.7184,0.0147 4.0664,0.12695 2.14574,0.37264 4.20861,2.28623 4.14844,4.54297 -0.0305,1.1914 -0.63939,2.22381 -1.54101,2.9707 -0.90163,0.7469 -2.09186,1.19475 -3.23243,1.20704 a 0.247422,0.247422 0 0 0 -0.004,0 c -2.36494,0.0601 -4.73526,0.13352 -7.07422,-0.0703 a 0.247422,0.247422 0 0 0 -0.0195,-0.002 c -0.50681,-0.002 -0.8817,-0.3713 -0.80078,-0.875 a 0.247422,0.247422 0 0 0 0.004,-0.0469 c -0.0824,-2.60664 0.0283,-5.2222 0.0664,-7.84571 h 0.27539 c 1.37346,0.0244 2.74495,-0.003 4.11133,-0.008 z m 24.41992,0.002 c 1.30039,-0.004 2.59489,0.0169 3.87695,0.14844 2.4887,0.52882 4.39757,2.77503 5.02539,5.20703 0.8181,3.212 0.42468,7.01343 -1.9414,9.44922 a 0.247422,0.247422 0 0 0 -0.002,0.002 c -1.14001,1.19405 -2.73307,1.91476 -4.38476,1.89258 a 0.247422,0.247422 0 0 0 -0.01,0 c -2.07156,0.0571 -4.14211,0.23904 -6.16601,0.0293 a 0.247422,0.247422 0 0 0 -0.0156,-0.002 c -0.27283,-0.01 -0.41549,-0.12527 -0.52148,-0.32032 -0.10599,-0.19504 -0.14534,-0.47727 -0.11328,-0.73437 a 0.247422,0.247422 0 0 0 0.002,-0.0352 c -0.1013,-5.20501 0.0182,-10.41558 0.0449,-15.63086 h 0.2793 c 1.31179,0.0278 2.62206,-0.002 3.92578,-0.006 z m -49.04492,2.07617 c 0.0446,0.0464 0.10227,0.11223 0.20117,0.25391 1.21956,1.9494 2.16988,4.08536 3.21289,6.16992 0.31144,0.68881 0.66488,1.33386 0.85352,2.00977 -0.15203,0.25417 -0.38094,0.35633 -0.72461,0.39844 -0.37745,0.0462 -0.83328,0.008 -1.24805,0.0703 l 0.0312,-0.004 c -2.12834,0.0473 -4.26356,0.11326 -6.35742,-0.10351 a 0.247422,0.247422 0 0 0 -0.0234,-0.002 c -0.16131,-0.001 -0.22779,-0.0347 -0.24023,-0.0449 -0.0125,-0.0102 -0.0147,-0.004 -0.0137,-0.0586 0.002,-0.10938 0.10729,-0.36898 0.20899,-0.60742 1.2148,-2.61381 2.45362,-5.21979 3.83789,-7.73828 0.0986,-0.11924 0.17971,-0.23048 0.23437,-0.30665 0.0217,-0.0303 0.0116,-0.0195 0.0274,-0.0371 z m -157.677736,2.81055 c 0.04374,0.3181 0.176451,1.27213 0.126953,0.95508 0.359564,1.32981 -0.153056,2.78128 -1.185547,3.68359 a 0.247422,0.247422 0 0 0 -0.0078,0.006 c -1.167519,1.0988 -3.264854,1.29511 -4.4550786,0.17383 -0.1607675,-0.37628 -0.069876,-0.70968 0.1503906,-1.0918 0.226973,-0.39374 0.580515,-0.79144 0.820312,-1.20898 l 0.002,-0.002 c 0.111727,-0.18941 0.244711,-0.32615 0.359375,-0.37891 0.11527,-0.053 0.213432,-0.061 0.398437,0.0605 a 0.247422,0.247422 0 0 0 0.0098,0.006 c 0.542748,0.32153 1.211717,0.39972 1.810547,0.24218 0.589026,-0.15495 1.118387,-0.55711 1.345703,-1.18945 l 0.01367,-0.0293 c 0.203332,-0.40896 0.407565,-0.8177 0.611328,-1.22656 z m -25.1738284,0.18164 c 0.074574,-0.50092 0.2350276,0.61067 0.5117188,0.61328 0.304462,0.36975 0.6497185,0.85156 1.0878906,1.21875 0.4381721,0.3672 1.0073749,0.61817 1.6679688,0.45313 a 0.247422,0.247422 0 0 0 0.017578,-0.006 c 0.2968361,-0.0998 0.6249369,-0.18403 0.9042969,-0.17773 0.2793599,0.006 0.4962733,0.0824 0.6796874,0.32226 a 0.247422,0.247422 0 0 0 0.015625,0.0176 c 0.4960951,0.54208 0.9003478,1.19368 1.3574219,1.82226 -0.7597656,0.67289 -1.5899522,1.3098 -2.5644531,1.16211 a 0.247422,0.247422 0 0 0 -0.013672,-0.002 c -2.1037466,-0.20669 -3.9065134,-2.28125 -3.6503906,-4.41016 l -0.00391,0.0195 c 0.058371,-0.29567 0.00375,-0.68831 -0.00977,-1.02344 -1.778e-4,-0.004 1.625e-4,-0.005 0,-0.01 z M 119.49414,113.625 h 0.0117 c 1.93476,0.0797 4.05493,-0.12767 5.52148,1.10352 a 0.247422,0.247422 0 0 0 0.004,0.004 c 1.21773,0.97134 1.79004,2.8553 0.85547,4.17578 a 0.247422,0.247422 0 0 0 -0.006,0.008 c -0.97684,1.51655 -2.92216,1.94769 -4.69141,2.00976 a 0.247422,0.247422 0 0 0 -0.006,0.002 c -2.56312,0.13237 -5.14126,0.25347 -7.66211,-0.0898 a 0.247422,0.247422 0 0 0 -0.0215,-0.002 c -0.23206,-0.0108 -0.38576,-0.10863 -0.49414,-0.26172 -0.10838,-0.15309 -0.16148,-0.36811 -0.13281,-0.59375 a 0.247422,0.247422 0 0 0 0.002,-0.041 c -0.0743,-2.0607 0.0325,-4.13244 0.0742,-6.21289 2.18299,-0.0375 4.36484,-0.0857 6.54492,-0.10156 z m 99.94336,38.63672 c 0.0257,0.14238 0.1731,0.61527 0.12109,0.48047 -0.0404,-0.16016 -0.16145,-0.64063 -0.12109,-0.48047 z" />
      <path
         id="path8654"
         style="fill:#070707;stroke-width:0.264583"
         sodipodi:type="inkscape:offset"
         inkscape:radius="0.032928374"
         inkscape:original="M 59.169922 100.61914 L 58.416016 101.26758 L 57.660156 101.91797 L 57.59375 112.19336 C 57.521796 123.21439 57.5476 123.45054 58.857422 124.11328 C 59.75726 124.56857 74.918172 124.59456 75.910156 124.14258 C 77.138834 123.58276 77.138834 121.61841 75.910156 121.05859 C 75.44721 120.84765 73.079243 120.74805 68.496094 120.74805 L 61.761719 120.74805 L 61.761719 117.57422 L 61.761719 114.39844 L 68.316406 114.39844 C 73.821617 114.39844 74.96713 114.33221 75.460938 113.98633 C 76.229668 113.44789 76.260994 111.96607 75.519531 111.22461 C 75.018587 110.72364 74.638759 110.69531 68.376953 110.69531 L 61.761719 110.69531 L 61.761719 107.51953 L 61.761719 104.34375 L 68.605469 104.34375 C 75.128207 104.34375 75.48202 104.31955 76.146484 103.79688 C 76.932249 103.17879 77.06783 102.10963 76.466797 101.28711 C 76.110969 100.80014 75.653549 100.76791 67.630859 100.69531 L 59.169922 100.61914 z M 39.453125 100.64453 C 34.603313 100.64005 33.633971 100.77681 33.125 101.53906 C 32.871045 101.91939 32.871045 123.17239 33.125 123.55273 C 33.406995 123.97505 34.394516 124.45312 34.986328 124.45312 C 35.267313 124.45312 35.809933 124.20591 36.193359 123.9043 C 36.882299 123.36241 36.890625 123.3155 36.890625 119.93555 L 36.890625 116.51562 L 39.880859 116.51562 L 42.871094 116.51562 L 45.75 119.83594 C 47.333441 121.66187 49.082568 123.56596 49.638672 124.06836 C 51.023527 125.3195 51.93892 125.21311 52.740234 123.70898 C 53.299613 122.65898 52.817553 121.70034 50.375 118.99805 C 49.074951 117.55975 48.010213 116.29614 48.007812 116.18945 C 48.005463 116.08276 48.568542 115.70678 49.259766 115.35352 C 51.919918 113.99401 53.281809 111.74872 53.287109 108.71094 C 53.292393 105.67741 51.800593 103.22478 49.177734 101.95508 C 47.151761 100.97432 44.740981 100.64953 39.453125 100.64453 z M 88.150391 100.69727 C 82.510609 100.57537 81.86752 100.6442 81.070312 101.44141 C 80.567616 101.94411 80.546875 102.36133 80.546875 112.49609 C 80.546875 123.55656 80.541121 123.49168 81.738281 124.14648 C 82.578751 124.60618 91.43104 124.52984 93.488281 124.04492 C 98.104765 122.95675 100.9305 119.7056 101.70508 114.58984 C 102.40424 109.97221 100.74629 105.2938 97.546875 102.85352 C 95.283512 101.1272 93.963257 100.82292 88.150391 100.69727 z M 36.890625 104.34375 L 40.826172 104.34375 C 43.686598 104.34375 45.076103 104.45504 45.912109 104.75 C 47.976727 105.47844 49.0625 106.92937 49.0625 108.96094 C 49.0625 109.96093 48.90749 110.33365 48.148438 111.17383 C 47.646206 111.72974 46.783263 112.33277 46.230469 112.51367 C 45.075023 112.89181 37.388013 113.24355 37.089844 112.93164 C 36.980706 112.81747 36.890625 110.83727 36.890625 108.5332 L 36.890625 104.34375 z M 84.515625 104.34375 L 88.287109 104.35547 C 90.65681 104.36277 92.408827 104.49362 93.005859 104.70703 C 98.815452 106.7837 99.404916 117.25905 93.865234 119.98633 C 92.7188 120.55074 92.166862 120.62517 88.550781 120.70117 L 84.515625 120.78516 L 84.515625 112.56445 L 84.515625 104.34375 z M 30.275391 141.85156 L 30.275391 147.13086 C 30.275391 150.03438 30.356115 152.49089 30.453125 152.58789 C 30.550137 152.68488 30.788393 152.76367 30.982422 152.76367 C 31.24757 152.76367 31.334891 152.22068 31.337891 150.58008 C 31.344474 147.03403 31.788356 146.94601 33.96875 150.05078 C 34.708004 151.10344 35.601385 152.15234 35.953125 152.38281 C 36.791211 152.93195 38.047026 152.79042 38.171875 152.13281 C 38.249654 151.72308 38.151327 151.66379 37.621094 151.79688 C 36.780344 152.0079 36.356327 151.66145 34.931641 149.60352 L 33.75 147.89844 L 34.990234 147.48633 C 35.94483 147.16941 36.348012 146.85311 36.744141 146.11328 C 37.193451 145.27413 37.217054 145.02031 36.939453 144.09375 C 36.465288 142.51114 35.64254 142.09413 32.724609 141.96289 L 30.275391 141.85156 z M 11.226562 141.91602 L 11.226562 147.33984 C 11.226562 152.55284 11.247053 152.76367 11.746094 152.76367 C 12.218503 152.76367 12.270634 152.54669 12.339844 150.35156 L 12.416016 147.9375 L 14.662109 147.90234 C 16.552573 147.87315 16.920231 147.79708 16.994141 147.41602 C 17.070725 147.02117 16.78545 146.95362 14.75 146.88672 L 12.416016 146.81055 L 12.339844 144.89258 L 12.261719 142.97461 L 14.455078 142.9707 C 16.691931 142.96657 17.52228 142.73487 17.197266 142.20898 C 17.081799 142.02216 15.959628 141.91602 14.121094 141.91602 L 11.226562 141.91602 z M 23.265625 141.91602 C 20.181467 141.91602 18.321872 143.99426 18.326172 147.4375 C 18.329424 150.01461 18.89397 151.20586 20.619141 152.27148 C 21.59539 152.87451 24.150252 152.93542 25.222656 152.38086 C 27.569087 151.16747 28.673464 148.18084 27.869141 145.22266 C 27.305994 143.15149 25.585761 141.91602 23.265625 141.91602 z M 46.019531 141.91602 C 44.657186 141.91602 44.423956 142.00183 43.611328 142.81445 C 42.84647 143.57931 42.710938 143.89832 42.710938 144.94336 C 42.710938 146.57225 43.380912 147.22289 45.830078 147.9668 C 47.995386 148.6245 48.71532 149.33865 48.302734 150.42383 C 47.985885 151.25722 47.537999 151.60242 46.482422 151.82812 C 45.138458 152.11549 43.78579 151.54316 43.351562 150.50391 C 42.916517 149.4627 42.469883 149.12133 42.171875 149.60352 C 41.830366 150.15609 42.532775 151.51677 43.496094 152.16797 C 44.599539 152.9139 46.881504 152.98706 48.023438 152.3125 C 49.014056 151.72733 49.680945 150.33392 49.457031 149.31445 C 49.22473 148.25679 48.335771 147.62414 46.152344 146.96094 C 44.258502 146.38571 43.769531 145.93598 43.769531 144.76953 C 43.769531 143.81038 44.484872 143.0121 45.517578 142.81836 C 46.722869 142.59225 47.603123 143.00147 48.138672 144.03711 C 48.372489 144.48926 48.705543 144.81161 48.878906 144.75391 C 49.522852 144.53952 49.340219 143.7289 48.447266 142.83594 C 47.612058 142.00072 47.388477 141.91602 46.019531 141.91602 z M 90.560547 141.91602 C 90.101865 141.91602 90.072266 142.23607 90.072266 147.16211 C 90.072266 150.04827 90.151037 152.49089 90.248047 152.58789 C 90.345059 152.68488 90.583315 152.76367 90.777344 152.76367 C 91.056701 152.76367 91.130859 151.87757 91.130859 148.50781 C 91.130859 146.02784 91.231085 144.2904 91.373047 144.3418 C 91.507024 144.3903 92.949946 146.30982 94.578125 148.60938 C 96.627916 151.50439 97.672076 152.76483 97.972656 152.70703 C 98.355151 152.63352 98.415406 151.98741 98.478516 147.26953 C 98.548059 142.07074 98.534384 141.91602 98.021484 141.91602 C 97.517455 141.91602 97.489142 142.11907 97.419922 146.34766 L 97.347656 150.7793 L 94.199219 146.34766 C 92.070215 143.35177 90.890858 141.91602 90.560547 141.91602 z M 103.96289 141.91602 C 100.16297 141.91602 99.829196 141.95391 99.910156 142.37891 C 99.980911 142.75034 100.32599 142.85672 101.65039 142.91992 L 103.30078 142.99805 L 103.30078 147.70508 C 103.30078 150.29326 103.38429 152.49365 103.48633 152.5957 C 103.58838 152.69754 103.85665 152.74642 104.08203 152.70312 C 104.43089 152.63612 104.50305 151.90796 104.56445 147.81055 L 104.63672 142.99805 L 106.28125 142.91992 C 107.60008 142.85689 107.94297 142.75011 108.01367 142.37891 C 108.09463 141.95389 107.76281 141.91602 103.96289 141.91602 z M 112.16406 141.91602 C 110.80171 141.91602 110.57044 142.00183 109.75781 142.81445 C 108.99295 143.57931 108.85742 143.89832 108.85742 144.94336 C 108.85742 146.52822 109.55494 147.25394 111.6582 147.85742 C 113.89314 148.49869 114.41406 148.89327 114.41406 149.94922 C 114.41406 150.97417 113.84944 151.56872 112.62891 151.82812 C 111.28438 152.11388 109.9319 151.54226 109.49805 150.50391 C 109.04682 149.42396 108.7468 149.21708 108.3418 149.70508 C 107.82958 150.32226 108.99269 152.13972 110.17969 152.57617 C 111.0774 152.90625 113.42766 152.75097 114.16992 152.3125 C 115.16054 151.72733 115.82547 150.33392 115.60156 149.31445 C 115.37679 148.29108 114.45138 147.59464 112.60938 147.06641 C 110.44981 146.4471 109.91602 146.04143 109.91602 145.01172 C 109.91602 143.82431 110.55092 143.02719 111.66406 142.81836 C 112.86935 142.59225 113.74961 143.00147 114.28516 144.03711 C 114.51898 144.48926 114.85203 144.81161 115.02539 144.75391 C 115.66934 144.53952 115.4867 143.7289 114.59375 142.83594 C 113.75854 142.00072 113.53301 141.91602 112.16406 141.91602 z M 123.67383 141.91602 L 123.67383 147.36328 L 123.67383 152.8125 L 126.47461 152.7207 C 129.25705 152.63105 129.28026 152.62613 130.04688 151.76758 C 130.65441 151.08718 130.81836 150.65262 130.81836 149.72461 C 130.81836 148.72522 130.69792 148.45825 130.0332 147.9668 L 129.25 147.38672 L 130.0332 146.49414 C 131.02251 145.36738 131.08152 144.12858 130.18945 143.16602 C 129.38255 142.29536 127.9954 141.91997 125.5918 141.91797 L 123.67383 141.91602 z M 132.10742 141.91602 C 131.83511 141.91602 131.61107 142.00414 131.61133 142.11328 C 131.61159 142.22242 132.44477 143.56187 133.46289 145.08984 L 135.31445 147.86914 L 135.31445 150.31641 C 135.3149 152.58726 135.3547 152.76367 135.8457 152.76367 C 136.33656 152.76367 136.375 152.58765 136.375 150.32812 L 136.375 147.89062 L 138.26562 145.03125 C 139.3059 143.45795 140.08926 142.10293 140.00586 142.01953 C 139.58914 141.60281 138.75325 142.39878 137.47852 144.43164 C 136.70398 145.66682 135.99118 146.67583 135.89258 146.67383 C 135.79399 146.67155 135.01368 145.60037 134.1582 144.29297 C 133.11645 142.70086 132.43904 141.91602 132.10742 141.91602 z M 148.29297 141.91602 C 145.89825 141.91602 144.69175 143.02423 144.74805 145.17188 C 144.78395 146.54093 145.5661 147.2626 147.67383 147.86719 C 149.89657 148.50478 150.39648 148.89299 150.39648 149.98438 C 150.39648 150.64159 150.23086 151.00628 149.80273 151.2832 C 148.09836 152.38561 146.18626 151.98178 145.34961 150.3418 C 144.77984 149.22495 144.23619 149.11391 144.09375 150.08398 C 144.035 150.48408 144.3396 151.00171 145.05469 151.7168 C 146.06233 152.72449 146.16764 152.76367 147.84375 152.76367 C 149.41461 152.76367 149.67602 152.68202 150.51953 151.94141 C 151.3474 151.21453 151.45508 150.97351 151.45508 149.84375 C 151.45508 148.29341 150.86073 147.71707 148.5918 147.06641 C 146.34485 146.42205 145.89844 146.05798 145.89844 144.86133 C 145.89844 143.65478 146.49283 143.01525 147.81445 142.80078 C 148.95835 142.61515 149.73761 143.01293 150.27734 144.05664 C 150.50567 144.49818 150.83445 144.81161 151.00781 144.75391 C 151.65176 144.53952 151.46912 143.7289 150.57617 142.83594 C 149.76396 142.02374 149.49568 141.91602 148.29297 141.91602 z M 156.02148 141.91602 C 152.28201 141.91602 151.9522 141.95415 152.0332 142.37891 C 152.10502 142.7556 152.45553 142.85632 153.90625 142.91992 L 155.68945 142.99805 L 155.68945 147.90039 C 155.68945 152.42656 155.72482 152.79499 156.15234 152.71289 C 156.56992 152.63267 156.6225 152.15057 156.6875 147.79883 L 156.75977 142.97461 L 158.30859 142.97461 C 159.76366 142.97461 160.72511 142.54151 160.27344 142.08984 C 160.17769 141.99405 158.26347 141.91602 156.02148 141.91602 z M 162.00977 141.91602 C 161.54334 141.91602 161.50977 142.16124 161.50977 145.55469 C 161.50977 147.55656 161.62553 149.60042 161.76758 150.0957 C 162.05127 151.0849 162.93402 152.1631 163.75781 152.52539 C 164.04885 152.65338 165.08537 152.72465 166.06055 152.68555 C 167.51993 152.62699 167.95986 152.49885 168.54297 151.96094 C 169.77189 150.82726 169.97656 149.94053 169.97656 145.75977 C 169.97656 142.0912 169.95216 141.91602 169.44727 141.91602 C 168.9431 141.91602 168.91797 142.09254 168.91797 145.64648 C 168.91797 150.79106 168.41938 151.70508 165.61914 151.70508 C 163.09011 151.70508 162.75967 151.05484 162.61719 145.81836 C 162.51885 142.20456 162.47307 141.91602 162.00977 141.91602 z M 172.62109 141.91602 L 172.62109 147.33984 L 172.62109 152.76367 L 174.77344 152.76367 C 175.9571 152.76367 177.40906 152.61788 177.99805 152.44141 C 181.69997 151.33229 182.91561 146.00869 180.05664 143.42578 C 178.86937 142.35315 177.24852 141.91602 174.46094 141.91602 L 172.62109 141.91602 z M 192.55273 141.91602 C 192.27278 141.91602 192.20117 143.01533 192.20117 147.35938 C 192.20117 152.40094 192.23521 152.79509 192.66406 152.71289 C 193.07588 152.63397 193.1421 152.14761 193.25977 148.30664 L 193.39258 143.98828 L 196.40234 148.26367 C 198.05792 150.61585 199.58824 152.60911 199.80273 152.69141 C 200.01723 152.77372 200.29934 152.67381 200.42969 152.4707 C 200.56003 152.2676 200.63746 149.83911 200.60156 147.07422 C 200.53885 142.24528 200.51417 142.04688 200.00586 142.04688 C 199.50431 142.04688 199.47108 142.26893 199.3457 146.27344 L 199.21289 150.49805 L 196.59375 146.80273 C 193.62506 142.61394 193.04842 141.91602 192.55273 141.91602 z M 206.12695 141.91602 C 203.40061 141.91602 201.9606 142.0136 201.83984 142.20898 C 201.54253 142.69004 202.28985 142.96475 203.9082 142.96875 L 205.42969 142.97266 L 205.42969 147.69141 C 205.42969 150.28653 205.51042 152.48894 205.60742 152.58594 C 205.70443 152.68293 205.94269 152.76367 206.13672 152.76367 C 206.4179 152.76367 206.48828 151.77339 206.48828 147.88086 L 206.48828 142.99805 L 208.27148 142.91992 C 209.72219 142.85627 210.07078 142.7556 210.14258 142.37891 C 210.22359 141.95409 209.89355 141.91602 206.12695 141.91602 z M 214.4082 141.91602 C 212.67359 141.91602 211.57461 142.50237 211.07617 143.69531 C 210.2293 145.72216 211.16892 147.13407 213.87305 147.90039 C 215.879 148.46886 216.54297 148.92762 216.54297 149.74414 C 216.54297 150.81249 216.08187 151.39774 214.98438 151.72656 C 213.45317 152.18532 212.1806 151.6858 211.50391 150.35938 C 210.93954 149.25312 210.54291 149.0587 210.27539 149.75586 C 210.04731 150.35023 210.9454 151.92885 211.76562 152.375 C 212.13737 152.5772 213.19704 152.74595 214.12109 152.75195 C 215.68536 152.76182 215.86361 152.70084 216.70117 151.86328 C 217.4593 151.10516 217.60156 150.77515 217.60156 149.76562 C 217.60156 148.30203 216.96971 147.70632 214.73828 147.06641 C 212.49132 146.42205 212.04492 146.05798 212.04492 144.86133 C 212.04492 143.73667 212.54739 143.12145 213.69922 142.83398 C 214.83607 142.55026 215.6545 142.89169 216.28516 143.91211 C 216.60427 144.42845 217.00212 144.80139 217.16797 144.74219 C 217.70487 144.55056 217.35531 143.38937 216.53711 142.64258 C 215.88871 142.05077 215.49152 141.91602 214.4082 141.91602 z M 84.933594 141.97266 C 83.247982 142.01376 81.868612 142.13695 81.869141 142.24609 C 81.869712 142.35523 81.869141 144.771 81.869141 147.61328 L 81.869141 152.7793 L 84.978516 152.70508 C 87.532422 152.64384 88.087891 152.5604 88.087891 152.23438 C 88.087891 151.91392 87.590822 151.82282 85.507812 151.76172 L 82.927734 151.68555 L 82.927734 149.7207 L 82.927734 147.75586 L 85.375 147.67969 C 87.340264 147.6186 87.822266 147.52572 87.822266 147.20703 C 87.822266 146.88834 87.340264 146.79547 85.375 146.73438 L 82.927734 146.6582 L 82.927734 144.82617 L 82.927734 142.99414 L 85.373047 142.91797 C 87.472468 142.85263 87.82876 142.77419 87.90625 142.36914 C 87.98925 141.93527 87.753037 141.90396 84.933594 141.97266 z M 186.99609 141.97266 L 183.86719 142.04688 L 183.79492 147.06641 C 183.75523 149.82682 183.78217 152.24257 183.85547 152.43359 C 184.06373 152.97633 190.2168 152.78362 190.2168 152.23438 C 190.2168 151.91391 189.71973 151.82282 187.63672 151.76172 L 185.05664 151.68555 L 185.05664 149.71094 L 185.05664 147.73633 L 187.42383 147.73633 C 188.87411 147.73633 189.85924 147.62175 189.9707 147.44141 C 190.29383 146.91857 189.47057 146.68564 187.28516 146.68164 C 186.10886 146.67941 185.09576 146.62846 185.03516 146.56836 C 184.97446 146.50829 184.96507 145.67984 185.01367 144.72656 L 185.10156 142.99219 L 187.52344 142.91797 C 189.60173 142.85295 189.95971 142.77378 190.03711 142.36914 C 190.12019 141.93487 189.87805 141.90386 186.99609 141.97266 z M 53.935547 141.97461 C 50.635095 142.03604 49.988281 142.11354 49.988281 142.44531 C 49.988281 142.75116 50.397097 142.85962 51.773438 142.91992 L 53.560547 142.99805 L 53.560547 147.88086 C 53.560547 152.58718 53.577841 152.76367 54.087891 152.76367 C 54.597978 152.76367 54.617188 152.58754 54.617188 147.86914 L 54.617188 142.97461 L 56.138672 142.9707 C 57.813416 142.96624 58.63259 142.64821 58.167969 142.18359 C 57.985485 142.00113 56.482008 141.92721 53.935547 141.97461 z M 60.041016 142.04688 C 59.534881 142.04688 59.512647 142.21951 59.523438 146.01562 C 59.536135 150.4822 59.723586 151.15828 61.232422 152.18164 C 62.028691 152.72176 62.407056 152.79629 63.931641 152.71289 C 65.371744 152.63414 65.836165 152.49175 66.404297 151.96094 C 67.784062 150.6718 67.949284 150.02872 67.964844 145.88477 C 67.978612 142.2199 67.956672 142.04688 67.451172 142.04688 C 66.950758 142.04687 66.925815 142.19218 67.015625 144.71094 C 67.130266 147.92605 66.70983 150.21986 65.847656 151.08203 C 64.947938 151.98176 62.170692 151.80276 61.578125 151.06641 L 60.943359 150.27734 L 60.703125 146.23828 C 60.577794 142.26804 60.542341 142.04688 60.041016 142.04688 z M 70.625 142.04688 L 70.552734 147.06641 C 70.513024 149.82682 70.539808 152.23745 70.611328 152.42383 C 70.77369 152.84695 74.398793 152.88749 75.857422 152.48242 C 77.101019 152.13707 78.658364 150.79881 79.130859 149.66797 C 79.64659 148.43365 79.571889 145.95916 78.978516 144.65234 C 78.624329 143.8723 78.112917 143.33961 77.216797 142.81445 C 76.066431 142.14025 75.716437 142.07245 73.289062 142.06055 L 70.625 142.04688 z M 23.009766 142.8418 C 25.35735 142.49085 26.945312 144.25163 26.945312 147.20508 C 26.945312 149.21165 26.254731 150.65147 24.972656 151.31445 C 24.557368 151.52921 23.631222 151.70508 22.916016 151.70508 C 20.677964 151.70508 19.427734 150.23126 19.427734 147.5918 C 19.427734 144.99681 20.804842 143.17142 23.009766 142.8418 z M 71.550781 142.9082 L 73.734375 143.02344 C 76.291049 143.15833 77.136972 143.59145 77.949219 145.18359 C 78.379763 146.02754 78.464808 146.57159 78.357422 147.75586 C 78.193205 149.56685 77.625717 150.50651 76.283203 151.19141 C 75.56818 151.55619 74.736132 151.70508 73.414062 151.70508 L 71.550781 151.70508 L 71.550781 147.30664 L 71.550781 142.9082 z M 124.73242 142.97266 L 126.5957 142.97266 C 128.2221 142.97266 128.54275 143.05643 129.10938 143.62305 C 130.24578 144.75946 129.71292 146.18108 127.9668 146.66602 C 126.85178 146.97564 125.17276 147.03019 124.9082 146.76562 C 124.81121 146.66862 124.73242 145.77564 124.73242 144.78125 L 124.73242 142.97266 z M 173.67969 142.97266 L 175.4668 142.97852 C 178.92251 142.98977 180.39576 144.2902 180.41406 147.33984 C 180.42628 149.37248 179.68453 150.67445 178.16797 151.28125 C 177.57846 151.51713 176.34927 151.70508 175.39453 151.70508 L 173.67969 151.70508 L 173.67969 147.33984 L 173.67969 142.97266 z M 31.333984 142.97461 L 33.066406 142.97461 C 34.552351 142.97461 34.890038 143.06582 35.447266 143.62305 C 36.49436 144.67014 36.15352 146.15857 34.753906 146.64648 C 33.820466 146.97188 31.791955 147.04586 31.511719 146.76562 C 31.414709 146.66861 31.333984 145.77564 31.333984 144.78125 L 31.333984 142.97461 z M 124.73242 147.67773 L 126.69336 147.77734 C 128.14519 147.85065 128.79793 148.00672 129.20703 148.37695 C 129.92946 149.03074 129.94149 150.46476 129.23047 151.17578 C 128.79538 151.61084 128.3484 151.70508 126.7168 151.70508 L 124.73242 151.70508 L 124.73242 149.69141 L 124.73242 147.67773 z M 117.64648 151.18555 C 117.19786 151.0208 116.8425 151.82625 116.98633 153.09375 C 117.06476 153.78497 117.21928 154.35156 117.33008 154.35156 C 117.44087 154.35156 117.72338 153.87007 117.95898 153.28125 C 118.27624 152.48833 118.31623 152.07622 118.11133 151.69336 C 117.95646 151.40398 117.79603 151.24046 117.64648 151.18555 z M 219.36719 151.32617 C 218.92486 151.49591 218.76444 152.25077 219.09961 152.58594 C 219.39773 152.88405 219.90055 152.78399 220.25781 152.35352 C 220.53751 152.01653 220.52824 151.87199 220.20508 151.54883 C 219.98513 151.32883 219.61539 151.23097 219.36719 151.32617 z "
         d="m 59.169922,100.58594 a 0.03293167,0.03293167 0 0 0 -0.02148,0.008 l -0.753907,0.64844 -0.755859,0.65039 a 0.03293167,0.03293167 0 0 0 -0.01172,0.0254 l -0.06641,10.27539 c -0.03598,5.51054 -0.04837,8.32374 0.113281,9.84766 0.08083,0.76195 0.206392,1.20337 0.396484,1.49804 0.190093,0.29468 0.443365,0.4375 0.771485,0.60352 0.06452,0.0326 0.177905,0.0587 0.339844,0.084 0.161939,0.0253 0.371282,0.0486 0.623047,0.0703 0.503528,0.0435 1.175031,0.0797 1.957031,0.10937 1.563999,0.0594 3.574228,0.0923 5.58789,0.0957 2.013662,0.003 4.02996,-0.0221 5.605469,-0.0762 0.787755,-0.027 1.464425,-0.0618 1.976563,-0.10351 0.256068,-0.0209 0.471763,-0.0437 0.638671,-0.0684 0.166909,-0.0247 0.28429,-0.0505 0.353516,-0.082 1.255125,-0.57188 1.255125,-2.57071 0,-3.14258 -0.124485,-0.0567 -0.358822,-0.10149 -0.71875,-0.14063 -0.359928,-0.0391 -0.843272,-0.072 -1.455078,-0.0977 -1.223612,-0.0513 -2.962093,-0.0762 -5.253906,-0.0762 h -6.701172 v -3.14062 -3.14258 h 6.521484 c 2.752738,0 4.415196,-0.0163 5.453125,-0.0762 1.037929,-0.0599 1.455043,-0.16256 1.710938,-0.3418 0.395819,-0.27724 0.597969,-0.79376 0.609375,-1.33203 0.01141,-0.53827 -0.168224,-1.10182 -0.546875,-1.48047 -0.126598,-0.1266 -0.250284,-0.22595 -0.458985,-0.30078 -0.2087,-0.0748 -0.501162,-0.1252 -0.972656,-0.16016 -0.942987,-0.0699 -2.603422,-0.0781 -5.734375,-0.0781 h -6.582031 v -3.14258 -3.14258 h 6.810547 c 3.261409,0 4.981238,-0.007 5.970703,-0.0781 0.494732,-0.0358 0.806355,-0.0869 1.039062,-0.16406 0.232708,-0.0772 0.383647,-0.18104 0.550782,-0.3125 0.798821,-0.62836 0.938569,-1.71929 0.328125,-2.55469 -0.09084,-0.12432 -0.196354,-0.22443 -0.419922,-0.29883 -0.223569,-0.0744 -0.566513,-0.12694 -1.148438,-0.16602 -1.16385,-0.0781 -3.283538,-0.10432 -7.294922,-0.14062 z m -19.716797,0.0254 c -2.425218,-0.002 -3.880661,0.0307 -4.796875,0.16015 -0.458107,0.0647 -0.782375,0.15304 -1.025391,0.2754 -0.243016,0.12235 -0.403532,0.28041 -0.533203,0.4746 -0.0089,0.0133 -0.0114,0.0254 -0.01563,0.043 -0.0042,0.0176 -0.0079,0.0381 -0.01172,0.0645 -0.0076,0.0526 -0.01646,0.12416 -0.02344,0.21289 -0.01395,0.17746 -0.02715,0.42695 -0.03906,0.73632 -0.02383,0.61876 -0.04272,1.48173 -0.05859,2.50782 -0.03175,2.05217 -0.04687,4.75469 -0.04687,7.45898 0,2.7043 0.01513,5.40876 0.04687,7.46094 0.01587,1.02609 0.03477,1.88906 0.05859,2.50781 0.01191,0.30938 0.02511,0.55887 0.03906,0.73633 0.007,0.0887 0.01582,0.16026 0.02344,0.21289 0.0038,0.0263 0.0075,0.0469 0.01172,0.0644 0.0042,0.0176 0.0067,0.0297 0.01563,0.043 0.147669,0.22115 0.468803,0.44723 0.828125,0.6211 0.359323,0.17386 0.755775,0.29492 1.060547,0.29492 0.150149,0 0.357006,-0.0635 0.578125,-0.16406 0.221119,-0.10061 0.454228,-0.23981 0.648438,-0.39258 0.344782,-0.27119 0.529851,-0.4313 0.61914,-0.93946 0.08929,-0.50816 0.0918,-1.36468 0.0918,-3.05468 v -3.38672 h 2.957031 2.97461 l 2.86914,3.30859 c 1.583882,1.82644 3.331251,3.72921 3.892579,4.23633 0.695449,0.6283 1.277681,0.9213 1.794921,0.86133 0.517241,-0.06 0.95447,-0.4741 1.357422,-1.23047 0.283491,-0.53213 0.302286,-1.05093 -0.05664,-1.76563 -0.358926,-0.71469 -1.090648,-1.63063 -2.3125,-2.98242 -0.649807,-0.71891 -1.241288,-1.39569 -1.669922,-1.90429 -0.214317,-0.25431 -0.387853,-0.46582 -0.507813,-0.6211 -0.05998,-0.0776 -0.107525,-0.14103 -0.138672,-0.1875 -0.01557,-0.0232 -0.02777,-0.0428 -0.03516,-0.0566 -0.0074,-0.0138 -0.008,-0.0242 -0.0078,-0.0176 2.9e-5,0.001 0.0031,-0.0127 0.01758,-0.0312 0.01448,-0.0186 0.03767,-0.0433 0.06836,-0.0703 0.06137,-0.0541 0.152939,-0.12202 0.265625,-0.19727 0.225373,-0.15048 0.53819,-0.33168 0.882813,-0.50781 2.669178,-1.36412 4.039604,-3.62428 4.044921,-6.67187 0.0053,-3.04436 -1.495486,-5.51035 -4.128906,-6.78516 -2.032628,-0.98398 -4.449086,-1.30945 -9.738281,-1.31445 z m 45.324219,0.006 c -0.866361,0.002 -1.501633,0.0232 -1.986328,0.0742 -0.969391,0.10204 -1.342742,0.32516 -1.744141,0.72656 -0.127204,0.1272 -0.228843,0.2565 -0.302734,0.5293 -0.07389,0.27279 -0.122196,0.69029 -0.15625,1.4082 -0.06811,1.43582 -0.07422,4.07322 -0.07422,9.14062 0,5.53023 -0.0022,8.27806 0.146484,9.73047 0.07432,0.72621 0.186784,1.1303 0.359375,1.39649 0.172591,0.26619 0.404026,0.38914 0.703125,0.55273 0.115903,0.0634 0.345993,0.10927 0.673828,0.15039 0.327836,0.0411 0.751565,0.0746 1.242188,0.0996 0.981246,0.05 2.23139,0.0678 3.519531,0.0566 2.576281,-0.0222 5.29938,-0.16146 6.337891,-0.40625 4.627819,-1.09084 7.466146,-4.35503 8.242186,-9.48047 0.70081,-4.6285 -0.96068,-9.31831 -4.171874,-11.76758 -1.133394,-0.86446 -2.034732,-1.37692 -3.378906,-1.68554 -1.344174,-0.30862 -3.130156,-0.41568 -6.037109,-0.47852 -1.410026,-0.0305 -2.506687,-0.0486 -3.373047,-0.0469 z m -47.853516,3.75976 h 3.902344 c 2.859572,0 4.246558,0.11228 5.074219,0.4043 2.055096,0.72508 3.128906,2.15985 3.128906,4.17969 0,0.99658 -0.148951,1.35316 -0.90625,2.1914 -0.497595,0.55078 -1.360481,1.15276 -1.902344,1.33008 -0.280038,0.0917 -0.980096,0.18637 -1.867187,0.26758 -0.887091,0.0812 -1.964321,0.15113 -3.015625,0.19922 -1.051304,0.0481 -2.075758,0.0733 -2.855469,0.0684 -0.389856,-0.002 -0.719468,-0.0119 -0.958984,-0.0312 -0.119759,-0.01 -0.218226,-0.0211 -0.289063,-0.0352 -0.07084,-0.014 -0.115201,-0.0368 -0.121094,-0.043 0.001,0.001 -0.0057,-0.01 -0.01172,-0.0293 -0.006,-0.0193 -0.01322,-0.0461 -0.01953,-0.0801 -0.01261,-0.068 -0.02526,-0.16293 -0.03711,-0.28125 -0.02369,-0.23665 -0.04443,-0.56654 -0.0625,-0.96485 -0.03613,-0.79661 -0.05859,-1.86792 -0.05859,-3.01953 z m 47.625,0 3.738281,0.0117 c 1.18427,0.004 2.213777,0.0374 3.021485,0.0977 0.807708,0.0602 1.394635,0.14796 1.685547,0.25195 2.888604,1.03255 4.483501,4.15752 4.664062,7.36719 0.180562,3.20967 -1.052203,6.4955 -3.806641,7.85156 -0.571852,0.28153 -0.992346,0.43885 -1.722656,0.53711 -0.730309,0.0983 -1.770275,0.13583 -3.578125,0.17383 l -4.001953,0.084 v -8.1875 z m -54.271484,37.44141 a 0.03293167,0.03293167 0 0 0 -0.03516,0.0332 v 5.2793 c 0,1.45206 0.02041,2.79153 0.05273,3.78125 0.01616,0.49486 0.03537,0.90325 0.05664,1.19336 0.01063,0.14505 0.02153,0.26032 0.0332,0.34375 0.0058,0.0417 0.0112,0.0757 0.01758,0.10156 0.0064,0.0259 0.0094,0.0426 0.02734,0.0606 0.109769,0.10974 0.349791,0.18555 0.552734,0.18555 0.07753,0 0.146003,-0.044 0.195312,-0.12696 0.04931,-0.0829 0.08527,-0.20449 0.113282,-0.37695 0.05601,-0.34492 0.07858,-0.89201 0.08008,-1.71289 0.0016,-0.88583 0.03145,-1.55518 0.107422,-2.00977 0.03799,-0.22729 0.08648,-0.40097 0.148437,-0.51953 0.06196,-0.11856 0.132633,-0.18037 0.216797,-0.19726 0.08416,-0.0169 0.189664,0.0121 0.318359,0.0937 0.128696,0.0816 0.280053,0.21508 0.453125,0.40039 0.346146,0.3706 0.781418,0.94695 1.326172,1.72265 0.370256,0.52723 0.780144,1.05305 1.140625,1.47657 0.360482,0.42351 0.669181,0.74249 0.853516,0.86328 0.426434,0.27941 0.956137,0.38187 1.398437,0.33203 0.22115,-0.0249 0.420167,-0.0866 0.574219,-0.1875 0.154052,-0.10088 0.263816,-0.24189 0.296875,-0.41602 0.01971,-0.10382 0.0287,-0.18677 0.02148,-0.2539 -0.0072,-0.0671 -0.03379,-0.12179 -0.08398,-0.15235 -0.05019,-0.0306 -0.117238,-0.0363 -0.203125,-0.0293 -0.08589,0.007 -0.19282,0.029 -0.326172,0.0625 -0.41498,0.10416 -0.714353,0.0724 -1.097656,-0.24023 -0.383303,-0.31268 -0.844676,-0.91299 -1.556641,-1.94141 L 33.802734,147.91602 35,147.51758 c 0.958183,-0.31811 1.374763,-0.64409 1.773438,-1.38867 0.225193,-0.42059 0.345008,-0.69907 0.373046,-0.99024 0.02804,-0.29117 -0.03667,-0.59037 -0.175781,-1.05469 -0.238357,-0.79555 -0.569011,-1.30621 -1.207031,-1.6289 -0.638021,-0.32269 -1.576719,-0.45971 -3.03711,-0.52539 z m 109.447266,0.0625 c -0.74124,0.37263 0.11037,-0.364 -0.68359,0.40234 -0.42444,0.40486 -0.95179,1.11333 -1.58985,2.13086 -0.387,0.61716 -0.76005,1.17832 -1.04687,1.58399 -0.14342,0.20283 -0.2655,0.36596 -0.35742,0.47851 -0.046,0.0563 -0.0844,0.10062 -0.11329,0.12891 -0.0144,0.0141 -0.0268,0.0234 -0.0352,0.0293 -0.008,0.006 -0.0139,0.006 -0.006,0.006 0.008,2e-4 0.001,8.5e-4 -0.008,-0.006 -0.009,-0.007 -0.0216,-0.0179 -0.0371,-0.0332 -0.031,-0.0307 -0.0713,-0.0786 -0.1211,-0.13867 -0.0996,-0.12023 -0.23369,-0.29434 -0.39062,-0.50977 -0.31386,-0.43085 -0.72291,-1.02442 -1.15039,-1.67773 -0.52131,-0.79672 -0.95218,-1.39184 -1.29493,-1.78906 -0.17137,-0.19861 -0.32004,-0.34862 -0.44921,-0.44922 -0.12918,-0.1006 -0.23809,-0.1543 -0.33399,-0.1543 -0.13971,0 -0.26794,0.0228 -0.36328,0.0606 -0.0477,0.0189 -0.0856,0.0407 -0.11523,0.0684 -0.0296,0.0277 -0.0509,0.063 -0.0508,0.10156 5e-5,0.0173 0.005,0.0293 0.0117,0.0469 0.007,0.0176 0.0166,0.0389 0.0293,0.0645 0.0253,0.0511 0.0622,0.11845 0.10938,0.20117 0.0944,0.16544 0.23051,0.3902 0.39843,0.66016 0.33586,0.53992 0.79937,1.25725 1.3086,2.02148 l 1.8457,2.77149 v 2.4375 c 2.3e-4,1.13561 0.009,1.74638 0.082,2.08203 0.0365,0.16782 0.0919,0.26954 0.17383,0.32812 0.082,0.0586 0.18387,0.0703 0.30859,0.0703 0.12469,0 0.22677,-0.01 0.3086,-0.0684 0.0818,-0.0584 0.13555,-0.16105 0.17187,-0.32813 0.0726,-0.33415 0.082,-0.94231 0.082,-2.07227 v -2.42773 l 1.88477,-2.85156 c 0.52044,-0.78711 0.97702,-1.51971 1.29297,-2.06641 0.15797,-0.27335 0.28072,-0.49928 0.35937,-0.66406 0.0393,-0.0824 0.0677,-0.14851 0.084,-0.19922 0.008,-0.0254 0.0138,-0.0475 0.0156,-0.0664 0.002,-0.0189 0.002,-0.039 -0.0156,-0.0566 -0.0838,-0.0838 -0.18831,-0.12235 -0.30469,-0.11523 z m -128.498048,0.002 a 0.03293167,0.03293167 0 0 0 -0.0332,0.0332 v 5.42382 c 0,2.60655 0.0044,3.96176 0.07227,4.66993 0.03393,0.35408 0.08288,0.54696 0.162109,0.6582 0.03962,0.0556 0.08849,0.0896 0.142578,0.10742 0.05409,0.0179 0.112242,0.0215 0.175782,0.0215 0.120623,0 0.221737,-0.0131 0.302734,-0.0742 0.081,-0.0611 0.136482,-0.16607 0.177734,-0.33399 0.08251,-0.33584 0.111873,-0.93736 0.146485,-2.03515 l 0.07422,-2.38282 2.214843,-0.0351 c 0.945641,-0.0146 1.510483,-0.0399 1.853516,-0.11133 0.171516,-0.0357 0.288497,-0.0841 0.369141,-0.15039 0.08064,-0.0663 0.123168,-0.15188 0.142578,-0.25195 0.01991,-0.10264 0.01621,-0.19286 -0.03906,-0.26563 -0.05527,-0.0728 -0.155012,-0.12207 -0.316406,-0.16016 -0.322789,-0.0762 -0.901884,-0.10911 -1.919922,-0.14257 l -2.304687,-0.0742 -0.07422,-1.88868 -0.07617,-1.88281 2.158203,-0.004 c 1.119556,-0.002 1.886495,-0.0614 2.339844,-0.1875 0.226674,-0.063 0.378242,-0.14119 0.453125,-0.24805 0.07488,-0.10686 0.06168,-0.23923 -0.02344,-0.37695 -0.02034,-0.0329 -0.05518,-0.056 -0.103515,-0.0781 -0.04833,-0.0222 -0.111105,-0.0421 -0.1875,-0.0606 -0.15279,-0.0368 -0.361699,-0.0687 -0.625,-0.0937 -0.526602,-0.0501 -1.2676,-0.0762 -2.1875,-0.0762 z m 12.039063,0 c -1.549475,0 -2.795864,0.52313 -3.652344,1.48047 -0.85648,0.95734 -1.32247,2.34666 -1.320312,4.07422 0.0016,1.29095 0.143608,2.23834 0.503906,2.99805 0.360298,0.7597 0.938801,1.32843 1.804687,1.86328 0.49863,0.308 1.384853,0.47277 2.283204,0.49414 0.898351,0.0214 1.807399,-0.10041 2.353515,-0.38281 2.362269,-1.22158 3.469907,-4.22436 2.66211,-7.19532 -0.566732,-2.08435 -2.30294,-3.33203 -4.634766,-3.33203 z m 22.753906,0 c -0.681864,0 -1.084738,0.0209 -1.421875,0.14649 -0.337136,0.12562 -0.602747,0.3547 -1.009765,0.76172 -0.38336,0.38336 -0.612032,0.65852 -0.744141,0.9707 -0.132109,0.31218 -0.166016,0.6577 -0.166016,1.18164 0,0.81896 0.171717,1.40115 0.652344,1.86719 0.480627,0.46603 1.263896,0.81501 2.490234,1.1875 1.080454,0.32818 1.797717,0.67143 2.189454,1.06054 0.391736,0.38911 0.464898,0.81912 0.261718,1.35352 -0.157129,0.41329 -0.343226,0.70169 -0.621093,0.91601 -0.277867,0.21433 -0.650419,0.35642 -1.175782,0.46876 -1.330804,0.28455 -2.665289,-0.28392 -3.091797,-1.30469 -0.218574,-0.52312 -0.439438,-0.8726 -0.652343,-1.03516 -0.106453,-0.0813 -0.214283,-0.11773 -0.316407,-0.0957 -0.102123,0.022 -0.192181,0.0994 -0.269531,0.22461 -0.182417,0.29515 -0.08595,0.78178 0.169922,1.27734 0.255869,0.49556 0.676664,1.00255 1.164063,1.33203 0.560034,0.37859 1.409885,0.58397 2.265625,0.61133 0.85574,0.0274 1.717189,-0.12241 2.296875,-0.46484 0.502377,-0.29676 0.918537,-0.79741 1.183593,-1.35157 0.265057,-0.55415 0.377773,-1.16409 0.263672,-1.68359 -0.117743,-0.53608 -0.404341,-0.96689 -0.933593,-1.34375 -0.529253,-0.37686 -1.299268,-0.70112 -2.392579,-1.0332 -0.945391,-0.28715 -1.53681,-0.54359 -1.888671,-0.86719 -0.351862,-0.3236 -0.470704,-0.71434 -0.470704,-1.29297 0,-0.94278 0.7014,-1.72674 1.720704,-1.91797 0.597679,-0.11212 1.1107,-0.0673 1.541015,0.13282 0.430315,0.20007 0.779716,0.5555 1.044922,1.06835 0.118372,0.22891 0.260853,0.42539 0.398437,0.5586 0.06879,0.0666 0.137389,0.11704 0.201172,0.14844 0.06378,0.0314 0.124633,0.0437 0.179688,0.0254 0.16733,-0.0557 0.285938,-0.1527 0.349609,-0.28125 0.06367,-0.12856 0.07276,-0.28523 0.0332,-0.46094 -0.07911,-0.35141 -0.351575,-0.78126 -0.800781,-1.23047 -0.418249,-0.41826 -0.686952,-0.65301 -1.025391,-0.78125 -0.338438,-0.12824 -0.740629,-0.14844 -1.425781,-0.14844 z m 44.541016,0 c -0.486912,0.27137 -0.627657,0.53571 -0.449219,0.80664 -0.06507,0.69934 -0.07227,2.00957 -0.07227,4.47266 0,1.44338 0.0209,2.77569 0.05273,3.75977 0.01592,0.49203 0.0336,0.89701 0.05469,1.18554 0.01054,0.14427 0.02158,0.25878 0.0332,0.3418 0.0058,0.0415 0.01121,0.0758 0.01758,0.10156 0.0064,0.0258 0.0095,0.0427 0.02734,0.0606 0.10977,0.10974 0.349792,0.18554 0.552735,0.18555 0.04362,0 0.0855,-0.0186 0.11914,-0.0547 0.03364,-0.036 0.06193,-0.0877 0.08594,-0.15821 0.04802,-0.14095 0.08255,-0.35908 0.109375,-0.68164 0.05366,-0.64511 0.07227,-1.70941 0.07227,-3.39453 0,-1.23954 0.02562,-2.29438 0.06836,-3.03125 0.02137,-0.36843 0.04711,-0.65716 0.07617,-0.84961 0.01453,-0.0962 0.0299,-0.16729 0.04492,-0.21093 0.0061,-0.0178 0.01128,-0.0283 0.01563,-0.0352 0.0042,0.003 0.0093,0.004 0.02148,0.0156 0.01723,0.0163 0.03903,0.0399 0.06641,0.0703 0.05474,0.0608 0.129184,0.14867 0.21875,0.25976 0.179133,0.22219 0.422525,0.53732 0.712891,0.92383 0.580732,0.77303 1.348174,1.82895 2.162109,2.97852 1.025117,1.44781 1.799552,2.48713 2.355469,3.1582 0.277958,0.33553 0.501415,0.57909 0.675781,0.73633 0.08718,0.0786 0.161842,0.13537 0.226563,0.17187 0.06472,0.0365 0.119717,0.0546 0.169922,0.0449 0.104246,-0.02 0.192803,-0.0873 0.255859,-0.23828 0.06306,-0.15093 0.109025,-0.38796 0.144531,-0.76953 0.07101,-0.76313 0.101256,-2.10383 0.132813,-4.46289 0.03477,-2.59943 0.04942,-3.93633 -0.0098,-4.62891 -0.02959,-0.34628 -0.07603,-0.53248 -0.15625,-0.63867 -0.04011,-0.0531 -0.08969,-0.0856 -0.144531,-0.10156 -0.05484,-0.016 -0.114747,-0.0176 -0.179688,-0.0176 -0.128218,0 -0.239464,0.0149 -0.322265,0.10938 -0.0828,0.0944 -0.134145,0.25683 -0.173828,0.54883 -0.07937,0.58398 -0.104061,1.69228 -0.138672,3.80664 l -0.07031,4.33007 -3.089844,-4.34961 c -1.064726,-1.49826 -1.892902,-2.60527 -2.496093,-3.33984 -0.301596,-0.36728 -0.54627,-0.64115 -0.738281,-0.82422 -0.09601,-0.0915 -0.179414,-0.16022 -0.25,-0.20703 -0.07059,-0.0468 -0.128425,-0.0742 -0.181641,-0.0742 z m 13.402343,0 c -1.90007,0 -2.93375,0.009 -3.48633,0.0723 -0.27628,0.0315 -0.43196,0.075 -0.521482,0.14648 -0.04476,0.0358 -0.07182,0.0805 -0.08203,0.12891 -0.01021,0.0484 -0.0066,0.0991 0.0039,0.1543 0.01856,0.0974 0.05693,0.18172 0.124997,0.25 0.0681,0.0683 0.1653,0.12065 0.29883,0.16211 0.26706,0.0829 0.68471,0.12461 1.34766,0.15624 l 1.61914,0.0762 v 4.67578 c 0,1.29444 0.021,2.49192 0.0547,3.3789 0.0168,0.4435 0.0363,0.80832 0.0586,1.07032 0.0111,0.131 0.0229,0.23606 0.0352,0.3125 0.006,0.0382 0.0128,0.0694 0.0195,0.0937 0.007,0.0243 0.0109,0.0421 0.0273,0.0586 0.0594,0.0593 0.15748,0.0969 0.26953,0.11719 0.11205,0.0203 0.23815,0.0225 0.35547,0 0.0979,-0.0188 0.17918,-0.0908 0.23828,-0.23828 0.0591,-0.14749 0.10193,-0.37395 0.13672,-0.72657 0.0696,-0.70522 0.10406,-1.91206 0.13477,-3.96093 l 0.0723,-4.78125 1.61328,-0.0762 c 0.66017,-0.0316 1.07597,-0.0733 1.3418,-0.15624 0.13292,-0.0415 0.22913,-0.0938 0.29688,-0.16211 0.0677,-0.0683 0.10646,-0.15268 0.125,-0.25 0.0105,-0.0552 0.014,-0.10591 0.004,-0.1543 -0.0102,-0.0484 -0.0354,-0.0932 -0.0801,-0.12891 -0.0893,-0.0715 -0.24739,-0.11494 -0.52343,-0.14648 -0.5521,-0.0631 -1.58431,-0.0723 -3.48438,-0.0723 z m 8.20117,0 c -0.68186,0 -1.08326,0.0209 -1.41992,0.14649 -0.33666,0.12563 -0.60276,0.35471 -1.00976,0.76172 -0.38337,0.38336 -0.61204,0.65852 -0.74415,0.9707 -0.1321,0.31218 -0.16601,0.6577 -0.16601,1.18164 0,0.79726 0.17719,1.3858 0.62109,1.84766 0.44391,0.46185 1.14906,0.79521 2.20313,1.09765 1.1164,0.32033 1.80263,0.57939 2.20508,0.88477 0.40245,0.30537 0.52734,0.65322 0.52734,1.17578 0,0.50643 -0.13832,0.90053 -0.42578,1.20312 -0.28746,0.3026 -0.72772,0.51568 -1.33399,0.64454 -1.3314,0.28297 -2.66567,-0.28484 -3.09179,-1.30469 -0.22633,-0.54168 -0.41249,-0.86733 -0.60742,-1.00196 -0.0975,-0.0673 -0.20154,-0.0844 -0.30274,-0.0488 -0.1012,0.0355 -0.19948,0.11777 -0.30273,0.24218 -0.13704,0.16512 -0.16025,0.40621 -0.10352,0.67579 0.0567,0.26957 0.19363,0.57161 0.38281,0.86718 0.37838,0.59115 0.96814,1.15873 1.57227,1.38086 0.45916,0.16883 1.27116,0.21075 2.06641,0.1582 0.79524,-0.0525 1.57035,-0.19771 1.95312,-0.42382 0.50239,-0.29677 0.91903,-0.79741 1.18359,-1.35157 0.26457,-0.55415 0.37582,-1.16411 0.26172,-1.68359 -0.11408,-0.5194 -0.40579,-0.95638 -0.90039,-1.32812 -0.49459,-0.37174 -1.19,-0.67859 -2.11328,-0.94336 -1.07864,-0.30933 -1.75013,-0.56696 -2.14648,-0.86914 -0.39636,-0.30218 -0.52344,-0.64514 -0.52344,-1.1543 0,-0.58784 0.15665,-1.0762 0.44922,-1.44336 0.29257,-0.36716 0.72126,-0.61357 1.27148,-0.7168 0.59768,-0.11212 1.1107,-0.0673 1.54102,0.13282 0.43031,0.20007 0.77971,0.5555 1.04492,1.06835 0.11837,0.22891 0.26085,0.42539 0.39844,0.5586 0.0688,0.0666 0.13739,0.11704 0.20117,0.14844 0.0638,0.0314 0.12463,0.0437 0.17969,0.0254 0.16733,-0.0557 0.28593,-0.1527 0.34961,-0.28125 0.0637,-0.12856 0.0728,-0.28523 0.0332,-0.46094 -0.0791,-0.35141 -0.35158,-0.78126 -0.80078,-1.23047 -0.41826,-0.41826 -0.68843,-0.65302 -1.02735,-0.78125 -0.33891,-0.12823 -0.74062,-0.14844 -1.42578,-0.14844 z m 11.50977,0 a 0.03293167,0.03293167 0 0 0 -0.0332,0.0332 v 5.44726 5.44922 a 0.03293167,0.03293167 0 0 0 0.0352,0.0332 l 2.80078,-0.0918 c 1.39124,-0.0448 2.0922,-0.0678 2.54883,-0.18946 0.45663,-0.12167 0.66348,-0.34601 1.04688,-0.77539 0.6102,-0.6834 0.77929,-1.13256 0.77929,-2.06445 0,-0.50102 -0.03,-0.82158 -0.14648,-1.08203 -0.11649,-0.26046 -0.31846,-0.45627 -0.65235,-0.70313 l -0.7539,-0.55859 0.75976,-0.86524 c 0.49839,-0.56763 0.76369,-1.16625 0.79102,-1.74609 0.0273,-0.57984 -0.18565,-1.13829 -0.63672,-1.625 -0.81648,-0.881 -2.21408,-1.25776 -4.62109,-1.25976 z m 24.61914,0 c -1.20244,0 -2.11085,0.27907 -2.71289,0.83203 -0.60205,0.55297 -0.89355,1.3769 -0.86524,2.45704 0.0181,0.69063 0.22748,1.22527 0.69727,1.6582 0.46979,0.43292 1.19579,0.7654 2.25195,1.06836 1.1103,0.31848 1.78809,0.57532 2.1836,0.88281 0.3955,0.30749 0.51562,0.66246 0.51562,1.20313 0,0.32583 -0.0406,0.57733 -0.13281,0.77929 -0.0922,0.20196 -0.23516,0.35626 -0.44531,0.49219 -0.84593,0.54716 -1.74115,0.71889 -2.52735,0.55273 -0.7862,-0.16615 -1.4647,-0.6705 -1.8789,-1.48242 -0.14331,-0.2809 -0.28595,-0.499 -0.42188,-0.65429 -0.13593,-0.1553 -0.26474,-0.24804 -0.38867,-0.27344 -0.12393,-0.0254 -0.23903,0.0249 -0.32422,0.14062 -0.0852,0.11575 -0.14753,0.29543 -0.18359,0.54102 -0.0309,0.21016 0.0349,0.4461 0.19531,0.71875 0.16045,0.27265 0.41669,0.5827 0.77539,0.9414 0.50407,0.5041 0.78662,0.76951 1.15625,0.90821 0.36963,0.13869 0.81794,0.14843 1.65625,0.14844 0.786,0 1.24765,-0.0198 1.62109,-0.13477 0.37345,-0.11493 0.6536,-0.32429 1.07618,-0.69531 0.41475,-0.36417 0.65349,-0.61062 0.7871,-0.91016 0.13362,-0.29954 0.16016,-0.64696 0.16016,-1.21289 0,-0.77938 -0.15231,-1.32373 -0.5918,-1.75 -0.43948,-0.42627 -1.15871,-0.73276 -2.29492,-1.05859 -1.12245,-0.32189 -1.79301,-0.57583 -2.17773,-0.89063 -0.38472,-0.3148 -0.49219,-0.68897 -0.49219,-1.2832 0,-0.59787 0.14599,-1.04856 0.45313,-1.37891 0.30713,-0.33034 0.77907,-0.5419 1.43554,-0.64844 0.56711,-0.092 1.03959,-0.0408 1.4375,0.16211 0.39791,0.20296 0.72256,0.55855 0.99024,1.07618 0.11566,0.22367 0.25666,0.41523 0.39257,0.54492 0.068,0.0648 0.13394,0.11417 0.19727,0.14453 0.0633,0.0303 0.12491,0.0417 0.17969,0.0234 0.16733,-0.0557 0.28594,-0.1527 0.34961,-0.28125 0.0637,-0.12856 0.0728,-0.28523 0.0332,-0.46094 -0.0791,-0.35141 -0.35158,-0.78126 -0.80078,-1.23047 -0.40687,-0.40687 -0.68027,-0.64035 -1.00586,-0.77148 -0.32559,-0.13114 -0.69844,-0.15821 -1.30078,-0.15821 z m 7.72851,0 c -1.86984,0 -2.8856,0.009 -3.42968,0.0723 -0.27205,0.0316 -0.42745,0.0749 -0.51563,0.14648 -0.0441,0.0358 -0.0701,0.0806 -0.0801,0.12891 -0.01,0.0483 -0.007,0.0991 0.004,0.1543 0.0188,0.0987 0.058,0.1834 0.12891,0.25195 0.0709,0.0686 0.17236,0.1211 0.31445,0.16211 0.28417,0.082 0.73493,0.12247 1.46094,0.15429 l 1.75195,0.0762 v 4.87109 c 0,2.26317 0.01,3.48546 0.0723,4.13672 0.0313,0.32563 0.0741,0.50929 0.14453,0.61328 0.0352,0.052 0.0796,0.0846 0.1289,0.0977 0.0493,0.013 0.10053,0.009 0.15625,-0.002 0.11027,-0.0212 0.20505,-0.0754 0.27344,-0.20703 0.0684,-0.13163 0.11543,-0.33884 0.15234,-0.67773 0.0738,-0.67779 0.10422,-1.88652 0.13672,-4.0625 l 0.0723,-4.79102 h 1.51562 c 0.73081,0 1.3377,-0.1073 1.71094,-0.27539 0.18662,-0.084 0.31602,-0.18264 0.37109,-0.29883 0.0551,-0.11618 0.0252,-0.24828 -0.0937,-0.36718 -0.0153,-0.0153 -0.0309,-0.019 -0.0527,-0.0254 -0.0219,-0.006 -0.0503,-0.0138 -0.084,-0.0195 -0.0674,-0.0116 -0.15897,-0.0208 -0.27344,-0.0312 -0.22893,-0.0209 -0.54788,-0.0409 -0.9336,-0.0566 -0.77142,-0.0315 -1.81026,-0.0508 -2.93164,-0.0508 z m 5.98829,0 c -0.18533,-0.28806 -1.37162,1.63658 -0.45704,0.57617 -0.0674,0.49062 -0.0762,1.39887 -0.0762,3.09571 0,1.00157 0.0294,2.01402 0.0762,2.83789 0.0467,0.82386 0.10992,1.45599 0.1836,1.71289 0.28693,1.0005 1.16992,2.08073 2.00781,2.44922 0.15665,0.0689 0.48744,0.11746 0.90625,0.14648 0.41881,0.029 0.92325,0.0372 1.41211,0.0176 0.73052,-0.0293 1.20599,-0.0756 1.57617,-0.18359 0.37018,-0.10802 0.63215,-0.27992 0.92578,-0.55078 0.61694,-0.56913 0.98144,-1.08309 1.1875,-1.97461 0.20607,-0.89153 0.25782,-2.15909 0.25782,-4.25 0,-1.83436 -0.006,-2.79501 -0.0762,-3.30274 -0.035,-0.25386 -0.0857,-0.39766 -0.16797,-0.48047 -0.0823,-0.0828 -0.19023,-0.0937 -0.31835,-0.0937 -0.12797,0 -0.23604,0.0127 -0.31836,0.0937 -0.0823,0.081 -0.13293,0.21986 -0.16797,0.4668 -0.0701,0.49387 -0.0762,1.42608 -0.0762,3.20312 0,2.57123 -0.12754,4.08373 -0.59571,4.94336 -0.23408,0.42982 -0.55007,0.69761 -0.98437,0.86133 -0.4343,0.16373 -0.98728,0.22071 -1.68555,0.22071 -0.63085,0 -1.12164,-0.0413 -1.50391,-0.18165 -0.38226,-0.14036 -0.65806,-0.37674 -0.86328,-0.77929 -0.41042,-0.80512 -0.53034,-2.275 -0.60156,-4.89258 -0.0492,-1.80702 -0.0856,-2.782 -0.16797,-3.31055 -0.0412,-0.26427 -0.0935,-0.41955 -0.17187,-0.51172 -0.0783,-0.0922 -0.18154,-0.11328 -0.30078,-0.11328 z m 10.61132,0 a 0.03293167,0.03293167 0 0 0 -0.0332,0.0332 v 5.42382 5.42383 a 0.03293167,0.03293167 0 0 0 0.0332,0.0332 h 2.15235 c 1.18636,0 2.63591,-0.14491 3.23437,-0.32422 3.72777,-1.11687 4.94943,-6.47116 2.07031,-9.07227 -1.19502,-1.07964 -2.82616,-1.51758 -5.61718,-1.51758 z m 19.93164,0 c -0.48276,0.90891 -0.19069,-0.0357 -0.31445,1.12305 -0.053,0.8197 -0.0703,2.18131 -0.0703,4.35352 0,2.52085 0.008,3.87981 0.0703,4.60156 0.0312,0.36087 0.0749,0.56152 0.14453,0.67578 0.0348,0.0571 0.079,0.0923 0.12891,0.10742 0.0499,0.0152 0.10217,0.0127 0.1582,0.002 0.10894,-0.0209 0.20357,-0.0756 0.27344,-0.19921 0.0699,-0.12364 0.1205,-0.31356 0.16211,-0.6211 0.0832,-0.61508 0.12866,-1.69655 0.1875,-3.61719 l 0.12891,-4.21875 2.95312,4.19336 c 0.82802,1.17642 1.62545,2.26327 2.24219,3.06641 0.30836,0.40157 0.57138,0.73089 0.77148,0.9668 0.10005,0.11795 0.18345,0.21331 0.25,0.28125 0.0666,0.0679 0.1109,0.10909 0.15235,0.125 0.23183,0.089 0.52665,-0.0172 0.66601,-0.23438 0.0239,-0.0373 0.036,-0.0968 0.0508,-0.18945 0.0147,-0.0926 0.0285,-0.21503 0.041,-0.36524 0.0251,-0.3004 0.0469,-0.70981 0.0625,-1.19921 0.0312,-0.97882 0.0414,-2.27728 0.0234,-3.66016 -0.0314,-2.41452 -0.0528,-3.67072 -0.13086,-4.32813 -0.039,-0.3287 -0.0913,-0.50949 -0.17383,-0.61328 -0.0413,-0.0519 -0.0917,-0.0831 -0.14649,-0.0996 -0.0548,-0.0165 -0.11312,-0.0195 -0.17773,-0.0195 -0.12782,0 -0.23855,0.0151 -0.32227,0.10742 -0.0837,0.0923 -0.13793,0.25279 -0.18164,0.53321 -0.0874,0.56083 -0.12676,1.61486 -0.18945,3.61718 l -0.12891,4.12696 -2.5625,-3.61524 c -1.48442,-2.09451 -2.37053,-3.31576 -2.94921,-4.01562 -0.28935,-0.34993 -0.50206,-0.5695 -0.67579,-0.70313 -0.17372,-0.13362 -0.31171,-0.18164 -0.44336,-0.18164 z m 13.57422,0 c -1.36356,0 -2.40573,0.0253 -3.12304,0.0742 -0.35866,0.0245 -0.63515,0.0547 -0.83203,0.0918 -0.0984,0.0185 -0.1771,0.038 -0.23633,0.0605 -0.0592,0.0225 -0.10058,0.0457 -0.12305,0.082 -0.0783,0.1267 -0.091,0.25117 -0.0312,0.35547 0.0597,0.10429 0.18349,0.18589 0.36328,0.25195 0.35958,0.13211 0.95265,0.20112 1.76367,0.20312 l 1.48828,0.004 v 4.68555 c 0,1.2979 0.0204,2.49706 0.0527,3.38476 0.0162,0.44385 0.0354,0.81072 0.0566,1.07227 0.0106,0.13077 0.0215,0.23457 0.0332,0.31054 0.006,0.038 0.0131,0.0697 0.0195,0.0937 0.006,0.024 0.009,0.04 0.0254,0.0566 0.10962,0.10958 0.34957,0.18749 0.55274,0.1875 0.0448,0 0.0877,-0.0224 0.12109,-0.0625 0.0334,-0.0401 0.0602,-0.0985 0.084,-0.17774 0.0476,-0.1585 0.0829,-0.40338 0.10937,-0.77148 0.0529,-0.73622 0.0703,-1.95784 0.0703,-3.9043 v -4.85156 l 1.75196,-0.0762 c 0.726,-0.0319 1.17528,-0.0723 1.45898,-0.15429 0.14185,-0.041 0.2437,-0.0936 0.31446,-0.16211 0.0708,-0.0686 0.11008,-0.15323 0.1289,-0.25195 0.0105,-0.0552 0.0139,-0.10596 0.004,-0.1543 -0.01,-0.0483 -0.0358,-0.0931 -0.0801,-0.12891 -0.0886,-0.0716 -0.24382,-0.11492 -0.51758,-0.14648 -0.54751,-0.0631 -1.57167,-0.0723 -3.45508,-0.0723 z m 8.28125,0 c -0.87101,0 -1.58435,0.1482 -2.14453,0.44727 -0.56018,0.29907 -0.96695,0.74892 -1.21875,1.35156 -0.42615,1.01993 -0.40333,1.8954 0.0703,2.60742 0.47365,0.71203 1.39184,1.25825 2.74805,1.64258 1.00166,0.28386 1.66738,0.54054 2.07813,0.82422 0.41074,0.28367 0.56836,0.58895 0.56836,0.98828 0,0.52944 -0.11435,0.93406 -0.36133,1.24805 -0.24698,0.31399 -0.62902,0.53989 -1.17383,0.70312 -0.76006,0.22772 -1.45283,0.21657 -2.03906,-0.0137 -0.58623,-0.23023 -1.06704,-0.68063 -1.40235,-1.33789 -0.28325,-0.55522 -0.52089,-0.88449 -0.74023,-0.99219 -0.10967,-0.0538 -0.22045,-0.0454 -0.3125,0.0234 -0.0921,0.0688 -0.16829,0.19183 -0.23633,0.36914 -0.0614,0.15989 -0.0444,0.37501 0.0215,0.61719 0.0659,0.24217 0.18361,0.51108 0.33399,0.77539 0.30075,0.52861 0.73039,1.03912 1.15039,1.26758 0.19403,0.10553 0.55182,0.19713 0.98047,0.26562 0.42865,0.0685 0.92668,0.11222 1.39062,0.11524 0.78257,0.005 1.22205,-0.008 1.57422,-0.12891 0.35218,-0.12125 0.60998,-0.35021 1.0293,-0.76953 0.38003,-0.38002 0.60925,-0.65531 0.74219,-0.96484 0.13294,-0.30954 0.16797,-0.64994 0.16797,-1.15626 0,-0.73653 -0.1615,-1.26309 -0.60547,-1.68164 -0.44398,-0.41854 -1.16373,-0.72835 -2.28125,-1.04882 -1.12246,-0.32189 -1.79302,-0.57583 -2.17774,-0.89063 -0.38472,-0.3148 -0.49219,-0.68897 -0.49219,-1.2832 10e-6,-0.55743 0.12291,-0.98341 0.38672,-1.30664 0.26381,-0.32324 0.67054,-0.54678 1.24219,-0.68946 0.56361,-0.14065 1.04503,-0.12541 1.46289,0.0488 0.41787,0.17424 0.77505,0.50944 1.08789,1.01563 0.16091,0.26036 0.34096,0.48365 0.50391,0.63672 0.0815,0.0765 0.15889,0.13504 0.22851,0.17187 0.0696,0.0368 0.13376,0.055 0.18946,0.0352 0.1452,-0.0518 0.23211,-0.17269 0.26367,-0.32813 0.0316,-0.15543 0.0115,-0.34737 -0.0508,-0.55469 -0.12467,-0.41462 -0.42033,-0.89393 -0.83399,-1.27148 -0.6515,-0.59465 -1.06434,-0.73633 -2.15039,-0.73633 z m -127.808591,0.0293 c -0.417861,-3e-5 -0.961082,0.0102 -1.666015,0.0273 -0.843389,0.0206 -1.611424,0.0617 -2.167969,0.11133 -0.278272,0.0248 -0.502836,0.0522 -0.660156,0.0801 -0.07866,0.0139 -0.139644,0.0281 -0.183594,0.043 -0.02197,0.007 -0.04012,0.0138 -0.05469,0.0234 -0.01457,0.01 -0.03137,0.0247 -0.03125,0.0488 5.57e-4,0.10649 0,2.52491 0,5.36719 v 5.16602 a 0.03293167,0.03293167 0 0 0 0.0332,0.0332 l 3.109375,-0.0742 c 1.277254,-0.0306 2.055703,-0.0669 2.517578,-0.13672 0.230937,-0.0349 0.383505,-0.078 0.482422,-0.13672 0.09892,-0.0587 0.142578,-0.13961 0.142578,-0.23046 0,-0.0886 -0.03898,-0.16923 -0.125,-0.22852 -0.08602,-0.0593 -0.217612,-0.10109 -0.41211,-0.13672 -0.388995,-0.0713 -1.034264,-0.11006 -2.076172,-0.14062 l -2.546874,-0.0742 v -1.9336 -1.93359 l 2.416015,-0.0742 c 0.983067,-0.0306 1.594166,-0.0691 1.964844,-0.14062 0.185339,-0.0358 0.311823,-0.0793 0.394531,-0.13868 0.08271,-0.0594 0.119141,-0.13859 0.119141,-0.22656 0,-0.088 -0.03643,-0.16719 -0.119141,-0.22656 -0.08271,-0.0594 -0.209192,-0.10289 -0.394531,-0.13867 -0.370677,-0.0716 -0.981778,-0.11007 -1.964844,-0.14063 l -2.416015,-0.0742 v -1.80078 -1.80078 l 2.414062,-0.0742 c 1.050062,-0.0327 1.662589,-0.0688 2.029297,-0.14844 0.183354,-0.0398 0.307242,-0.0895 0.390625,-0.16015 0.08338,-0.0707 0.12432,-0.16194 0.144531,-0.26758 0.0213,-0.11137 0.02305,-0.20738 -0.04102,-0.28125 -0.06406,-0.0739 -0.183202,-0.1174 -0.386719,-0.14453 -0.203518,-0.0271 -0.494248,-0.0371 -0.91211,-0.0371 z m 102.099611,0 c -0.4272,10e-6 -0.98257,0.0101 -1.70313,0.0273 l -3.1289,0.0742 a 0.03293167,0.03293167 0 0 0 -0.0332,0.0332 l -0.0723,5.01953 c -0.0198,1.38045 -0.0227,2.67517 -0.0117,3.64843 0.005,0.48664 0.0151,0.89242 0.0273,1.18946 0.006,0.14852 0.0118,0.26882 0.0195,0.35937 0.008,0.0906 0.0141,0.14724 0.0273,0.18164 0.0179,0.0467 0.063,0.0813 0.12305,0.11133 0.0601,0.0301 0.13881,0.055 0.23437,0.0781 0.19113,0.0463 0.44985,0.0825 0.75391,0.10742 0.60811,0.0498 1.39657,0.0597 2.17968,0.0352 0.78312,-0.0245 1.56037,-0.0847 2.14258,-0.17187 0.29111,-0.0436 0.53302,-0.0944 0.70508,-0.15235 0.086,-0.029 0.15366,-0.0593 0.20313,-0.0937 0.0495,-0.0345 0.084,-0.0753 0.084,-0.125 0,-0.0886 -0.039,-0.16923 -0.125,-0.22852 -0.086,-0.0593 -0.21761,-0.10109 -0.41211,-0.13672 -0.38899,-0.0713 -1.03426,-0.11006 -2.07617,-0.14062 l -2.54688,-0.0742 v -1.94336 -1.94141 h 2.33399 c 0.72601,0 1.33575,-0.0286 1.77929,-0.0801 0.22178,-0.0257 0.40173,-0.0569 0.53516,-0.0937 0.13343,-0.0369 0.22132,-0.0745 0.25977,-0.13672 0.0846,-0.13695 0.097,-0.26844 0.0234,-0.375 -0.0736,-0.10656 -0.22063,-0.18503 -0.44336,-0.24804 -0.44544,-0.12603 -1.1991,-0.1855 -2.29296,-0.1875 -0.5877,-0.001 -1.1339,-0.0147 -1.54102,-0.0352 -0.20356,-0.0102 -0.37338,-0.022 -0.49414,-0.0352 -0.0604,-0.007 -0.10845,-0.0127 -0.14258,-0.0195 -0.0171,-0.003 -0.0301,-0.007 -0.0391,-0.01 -0.009,-0.003 -0.0137,-0.008 -0.01,-0.004 0.006,0.006 -0.006,-0.0128 -0.0117,-0.041 -0.006,-0.0283 -0.0114,-0.0674 -0.0156,-0.11719 -0.009,-0.0996 -0.0137,-0.2379 -0.0156,-0.4043 -0.004,-0.3328 0.007,-0.77786 0.0313,-1.2539 l 0.0859,-1.70508 2.39258,-0.0723 c 1.0395,-0.0325 1.64722,-0.0687 2.01172,-0.14844 0.18225,-0.0399 0.3055,-0.0915 0.38867,-0.16211 0.0832,-0.0707 0.12434,-0.16005 0.14453,-0.26562 0.0213,-0.11154 0.0228,-0.20945 -0.043,-0.2832 -0.0657,-0.0738 -0.18643,-0.11549 -0.39453,-0.14258 -0.20809,-0.0271 -0.5064,-0.0371 -0.93359,-0.0371 z m -133.052736,0.0156 c -0.502237,-0.003 -1.074102,0.002 -1.710937,0.0137 -1.650444,0.0307 -2.637477,0.0659 -3.214844,0.13476 -0.288683,0.0345 -0.474837,0.0766 -0.59375,0.13477 -0.118913,0.0582 -0.171875,0.14073 -0.171875,0.23437 0,0.0838 0.02973,0.15908 0.0957,0.21875 0.06597,0.0597 0.164804,0.10541 0.304688,0.14258 0.279768,0.0744 0.727125,0.1163 1.416015,0.14648 l 1.75586,0.0762 v 4.85156 c 0,2.3532 0.0037,3.57224 0.07227,4.20898 0.03427,0.31838 0.08455,0.4937 0.166016,0.59375 0.04073,0.05 0.09002,0.0802 0.144531,0.0957 0.05451,0.0155 0.113029,0.0176 0.177735,0.0176 0.06471,0 0.123166,-0.002 0.177734,-0.0176 0.05457,-0.0155 0.105661,-0.0456 0.146484,-0.0957 0.08165,-0.10019 0.129546,-0.27466 0.164063,-0.59375 0.06903,-0.63817 0.07422,-1.86145 0.07422,-4.2207 v -4.86133 l 1.488281,-0.004 c 0.839442,-0.002 1.464009,-0.0814 1.828125,-0.22266 0.182058,-0.0706 0.302344,-0.15785 0.345703,-0.26758 0.02168,-0.0549 0.02299,-0.11432 0.002,-0.17383 -0.02103,-0.0595 -0.0626,-0.11923 -0.123047,-0.17968 -0.03041,-0.0304 -0.07861,-0.0521 -0.144531,-0.0723 -0.06592,-0.0201 -0.149728,-0.0367 -0.253906,-0.0527 -0.208358,-0.0322 -0.494362,-0.0565 -0.853516,-0.0742 -0.359154,-0.0177 -0.790732,-0.0301 -1.292969,-0.0332 z m 4.394532,0.0859 c -0.17382,-0.31221 -1.51393,1.65939 -0.484375,0.58985 -0.06816,0.5229 -0.0718,1.51398 -0.06641,3.4121 0.0063,2.23375 0.05592,3.52052 0.294922,4.38282 0.239005,0.8623 0.673006,1.29733 1.429688,1.81054 0.399557,0.27103 0.698025,0.42717 1.08789,0.50391 0.389865,0.0767 0.867885,0.0749 1.63086,0.0332 0.720939,-0.0394 1.198482,-0.0958 1.570312,-0.20898 0.37183,-0.11322 0.637565,-0.28528 0.923828,-0.55273 0.6914,-0.64599 1.083461,-1.13629 1.300782,-1.98243 0.21732,-0.84613 0.261749,-2.04478 0.269531,-4.11718 0.0069,-1.83251 0.0052,-2.79014 -0.0625,-3.29688 -0.03383,-0.25337 -0.08403,-0.39786 -0.166016,-0.48047 -0.08198,-0.0826 -0.190106,-0.0937 -0.318359,-0.0937 -0.126697,0 -0.229403,0.008 -0.310547,0.0684 -0.08114,0.0603 -0.130758,0.16831 -0.160156,0.34766 -0.0588,0.3587 -0.04296,1.02369 0.002,2.2832 0.05726,1.60584 -0.01887,2.98083 -0.216797,4.06055 -0.197928,1.07972 -0.518751,1.8625 -0.941406,2.28515 -0.437109,0.43712 -1.350833,0.61989 -2.226563,0.59571 -0.437865,-0.0121 -0.864492,-0.0745 -1.21875,-0.17969 -0.354258,-0.10523 -0.634716,-0.25488 -0.77539,-0.42969 l -0.626954,-0.7793 -0.240234,-4.02929 c -0.06267,-1.9852 -0.10345,-3.03151 -0.191406,-3.58789 -0.04398,-0.27819 -0.09772,-0.43569 -0.181641,-0.52735 -0.08392,-0.0917 -0.194513,-0.10742 -0.322265,-0.10742 z m 10.583984,0 a 0.03293167,0.03293167 0 0 0 -0.0332,0.0332 l -0.07227,5.01953 c -0.01986,1.38045 -0.0224,2.67313 -0.01172,3.64453 0.0053,0.4857 0.01342,0.8916 0.02539,1.1875 0.006,0.14795 0.01392,0.26746 0.02148,0.35742 0.0076,0.09 0.01232,0.14563 0.02539,0.17969 0.0276,0.0719 0.111592,0.11819 0.232422,0.16015 0.12083,0.042 0.282615,0.0768 0.476562,0.10547 0.387896,0.0573 0.903493,0.0895 1.458985,0.0957 1.110984,0.0124 2.382776,-0.0787 3.119141,-0.28321 0.62895,-0.17466 1.330782,-0.59758 1.9375,-1.11914 0.606717,-0.52155 1.117994,-1.13986 1.357421,-1.71289 0.261102,-0.6249 0.370276,-1.55659 0.341797,-2.49609 -0.02848,-0.93951 -0.196387,-1.88682 -0.496094,-2.54688 -0.356787,-0.78576 -0.873652,-1.32621 -1.773437,-1.85351 -0.576024,-0.3376 -0.956966,-0.52535 -1.496094,-0.62891 -0.539127,-0.10356 -1.235232,-0.12295 -2.449219,-0.12891 z m -47.183594,0.82031 c 0.975428,-0.0396 1.794616,0.30968 2.392578,0.97266 0.683385,0.75769 1.078125,1.92761 1.078125,3.39844 0,1.99901 -0.685996,3.42382 -1.955078,4.08008 -0.40406,0.20895 -1.331207,0.38672 -2.041015,0.38672 -1.111798,0 -1.972897,-0.36411 -2.558594,-1.05469 -0.585697,-0.69059 -0.896485,-1.71086 -0.896484,-3.02539 0,-2.58334 1.363408,-4.38951 3.552734,-4.7168 0.145594,-0.0218 0.288387,-0.0354 0.427734,-0.041 z m 48.142578,0.10938 2.148438,0.11328 c 1.276676,0.0674 2.12264,0.20882 2.748047,0.5293 0.625407,0.32047 1.034883,0.82025 1.439453,1.61328 0.428738,0.84041 0.51146,1.37092 0.404297,2.55273 -0.08185,0.90261 -0.263162,1.5859 -0.589844,2.12696 -0.326682,0.54105 -0.799297,0.94267 -1.466797,1.2832 -0.709042,0.36173 -1.533918,0.50977 -2.853516,0.50977 h -1.830078 v -4.36524 z m 53.181636,0.0625 h 1.83008 c 0.81264,0 1.29811,0.0211 1.64649,0.11133 0.34838,0.0902 0.56205,0.24761 0.84375,0.52929 0.56152,0.56154 0.70665,1.18502 0.50195,1.73047 -0.20469,0.54546 -0.76496,1.01733 -1.63086,1.25782 -0.55388,0.1538 -1.25017,0.24448 -1.83984,0.26367 -0.29484,0.01 -0.56211,0.002 -0.77149,-0.0254 -0.20937,-0.0269 -0.36063,-0.0774 -0.41406,-0.13086 -0.004,-0.004 -0.0166,-0.0251 -0.0273,-0.0586 -0.0108,-0.0335 -0.0209,-0.0792 -0.0312,-0.13476 -0.0207,-0.11117 -0.0408,-0.26224 -0.0566,-0.44141 -0.0317,-0.35834 -0.0508,-0.82984 -0.0508,-1.32617 z m 48.94727,0 1.75391,0.006 c 1.72374,0.006 2.94642,0.3332 3.74023,1.0332 0.79381,0.7 1.16471,1.77538 1.17383,3.29492 0.006,1.01228 -0.17511,1.83929 -0.54492,2.48828 -0.36982,0.649 -0.92723,1.12081 -1.67969,1.42188 -0.58045,0.23226 -1.8113,0.42188 -2.76172,0.42188 h -1.68164 v -4.33204 z m -142.345702,0.002 h 1.699218 c 0.742299,0 1.195354,0.0224 1.529297,0.11328 0.333943,0.0909 0.551228,0.2485 0.828125,0.52539 0.516768,0.51677 0.689116,1.13903 0.5625,1.69141 -0.126616,0.55238 -0.553377,1.03654 -1.24414,1.27734 -0.460452,0.16052 -1.19905,0.26111 -1.855469,0.28516 -0.32821,0.012 -0.635241,0.006 -0.876953,-0.0215 -0.120857,-0.0136 -0.225216,-0.0332 -0.306641,-0.0566 -0.08142,-0.0234 -0.140218,-0.0523 -0.167969,-0.0801 -0.004,-0.004 -0.01653,-0.025 -0.02734,-0.0586 -0.01081,-0.0335 -0.02276,-0.0792 -0.0332,-0.13476 -0.02089,-0.11117 -0.03859,-0.26224 -0.05469,-0.44141 -0.03219,-0.35833 -0.05273,-0.82987 -0.05273,-1.32617 z m 93.398432,4.70508 1.92579,0.0977 c 1.44997,0.0732 2.09454,0.22821 2.49414,0.58984 0.3524,0.31892 0.53273,0.8338 0.53711,1.35547 0.004,0.52167 -0.16801,1.04887 -0.51563,1.39648 -0.2144,0.21439 -0.42571,0.34299 -0.79101,0.41993 -0.36531,0.0769 -0.88406,0.0996 -1.69922,0.0996 h -1.95118 v -1.98047 z m -7.19921,3.41992 c -0.1155,-0.22592 -1.57202,1.45971 -0.50391,0.45899 -0.12975,0.3467 -0.18172,0.86831 -0.10938,1.50586 0.0394,0.34701 0.0992,0.66214 0.16211,0.89257 0.0315,0.11522 0.0628,0.21017 0.0957,0.27735 0.0164,0.0336 0.0326,0.0596 0.0508,0.0801 0.0182,0.0205 0.0405,0.0371 0.0684,0.0371 0.0258,0 0.0466,-0.0127 0.0684,-0.0293 0.0218,-0.0166 0.0445,-0.038 0.0684,-0.0664 0.0477,-0.0567 0.1026,-0.13638 0.16015,-0.23437 0.11511,-0.19598 0.24495,-0.46597 0.36328,-0.76172 0.15919,-0.39784 0.2489,-0.70181 0.27344,-0.95703 0.0245,-0.25523 -0.0179,-0.46166 -0.12305,-0.65821 -0.15689,-0.29317 -0.32016,-0.46386 -0.48242,-0.52343 -0.0304,-0.0112 -0.0618,-0.0185 -0.0918,-0.0215 z m 102.00586,0.12305 c -0.0764,0.001 -0.15044,0.0136 -0.2168,0.0391 -0.23517,0.0902 -0.39005,0.33168 -0.44531,0.5918 -0.0553,0.26012 -0.0122,0.54447 0.16601,0.72266 0.15691,0.1569 0.36938,0.20936 0.58594,0.16601 0.21656,-0.0433 0.43842,-0.18028 0.62109,-0.40039 0.14144,-0.17041 0.21569,-0.29911 0.20703,-0.43164 -0.009,-0.13253 -0.0985,-0.25476 -0.26171,-0.41797 -0.17216,-0.1722 -0.4272,-0.27294 -0.65625,-0.26953 z"
         inkscape:export-filename="C:\Users\juan1\WebstormProjects\red-board\src\view\assets\final-short-principal-slogan-logo.png"
         inkscape:export-xdpi="96"
         inkscape:export-ydpi="96" />
    </g>
  </g>
</svg>
